<?xml version="1.0" encoding="UTF-8"?>
<!DOCTYPE svg PUBLIC "-//W3C//DTD SVG 1.1//EN" "http://www.w3.org/Graphics/SVG/1.1/DTD/svg11.dtd">
<svg xmlns="http://www.w3.org/2000/svg" version="1.1" width="1254px" height="1254px" style="shape-rendering:geometricPrecision; text-rendering:geometricPrecision; image-rendering:optimizeQuality; fill-rule:evenodd; clip-rule:evenodd" xmlns:xlink="http://www.w3.org/1999/xlink">
<g><path style="opacity:1" fill="#f9f9f9" d="M -0.5,-0.5 C 417.5,-0.5 835.5,-0.5 1253.5,-0.5C 1253.5,417.5 1253.5,835.5 1253.5,1253.5C 835.5,1253.5 417.5,1253.5 -0.5,1253.5C -0.5,835.5 -0.5,417.5 -0.5,-0.5 Z"/></g>
<g><path style="opacity:1" fill="#eeeeee" d="M 557.5,287.5 C 555.421,287.029 553.421,286.363 551.5,285.5C 551.5,285.167 551.5,284.833 551.5,284.5C 463.903,283.666 375.57,283.166 286.5,283C 375.026,281.336 463.693,281.003 552.5,282C 555.306,282.605 557.64,283.938 559.5,286C 558.584,286.278 557.918,286.778 557.5,287.5 Z"/></g>
<g><path style="opacity:1" fill="#18382e" d="M 551.5,284.5 C 551.5,284.833 551.5,285.167 551.5,285.5C 465.831,285.167 380.164,285.5 294.5,286.5C 363.651,287.011 432.317,287.011 500.5,286.5C 516.5,286.833 532.5,287.167 548.5,287.5C 546.887,288.427 545.221,289.261 543.5,290C 544.833,290.333 546.167,290.667 547.5,291C 461.5,291.333 375.5,291.667 289.5,292C 376.334,292.167 463.001,292.667 549.5,293.5C 462.166,293.333 374.833,293.5 287.5,294C 286.944,294.383 286.611,294.883 286.5,295.5C 283.178,296.658 281.012,298.992 280,302.5C 279.333,336.833 279.333,371.167 280,405.5C 281.406,408.409 283.572,410.409 286.5,411.5C 286.5,411.833 286.5,412.167 286.5,412.5C 295.658,413.33 304.991,413.83 314.5,414C 314.041,415.943 315.041,417.276 317.5,418C 309.5,418.667 301.5,418.667 293.5,418C 292.167,417 292.167,416 293.5,415C 290.833,414.333 288.167,414.333 285.5,415C 282.849,419.778 279.349,420.611 275,417.5C 273.4,380.382 272.233,343.382 271.5,306.5C 271.827,295.704 277.16,288.537 287.5,285C 375.499,284.5 463.499,284.333 551.5,284.5 Z"/></g>
<g><path style="opacity:1" fill="#e0e2e2" d="M 549.5,293.5 C 550.492,293.328 551.158,293.662 551.5,294.5C 463.126,294.172 374.792,294.505 286.5,295.5C 286.611,294.883 286.944,294.383 287.5,294C 374.833,293.5 462.166,293.333 549.5,293.5 Z"/></g>
<g><path style="opacity:1" fill="#f8f8f8" d="M 551.5,294.5 C 555.833,295.5 558.5,298.167 559.5,302.5C 559.5,338.833 559.5,375.167 559.5,411.5C 468.5,411.5 377.5,411.5 286.5,411.5C 283.572,410.409 281.406,408.409 280,405.5C 279.333,371.167 279.333,336.833 280,302.5C 281.012,298.992 283.178,296.658 286.5,295.5C 374.792,294.505 463.126,294.172 551.5,294.5 Z"/></g>
<g><path style="opacity:1" fill="#092b20" d="M 822.5,397.5 C 800.874,379.356 778.874,361.689 756.5,344.5C 751.861,340.032 747.028,335.699 742,331.5C 739.73,327.07 739.063,322.403 740,317.5C 743.575,313.347 746.909,309.014 750,304.5C 756.99,295.241 765.156,294.075 774.5,301C 798.8,321.479 823.467,341.479 848.5,361C 854.01,366.901 854.843,373.401 851,380.5C 846.62,386.092 842.12,391.592 837.5,397C 832.555,400.051 827.555,400.218 822.5,397.5 Z"/></g>
<g><path style="opacity:1" fill="#366a44" d="M 752.5,353.5 C 773.186,370.849 794.186,387.849 815.5,404.5C 815.752,407.32 815.252,409.986 814,412.5C 795.167,436 776.333,459.5 757.5,483C 755.19,483.497 752.857,483.663 750.5,483.5C 724.858,462.864 699.191,442.197 673.5,421.5C 673.338,419.473 673.505,417.473 674,415.5C 693.528,391.606 712.694,367.44 731.5,343C 733.833,342.333 736.167,342.333 738.5,343C 743.327,346.332 747.993,349.832 752.5,353.5 Z"/></g>
<g><path style="opacity:1" fill="#f2f4f3" d="M 756.5,344.5 C 778.874,361.689 800.874,379.356 822.5,397.5C 821.18,398.942 819.514,399.608 817.5,399.5C 817.923,401.781 817.256,403.448 815.5,404.5C 794.186,387.849 773.186,370.849 752.5,353.5C 753.239,353.631 753.906,353.464 754.5,353C 753.522,351.025 752.189,349.358 750.5,348C 752.421,345.703 752.421,343.703 750.5,342C 752.537,342.483 754.537,343.316 756.5,344.5 Z"/></g>
<g><path style="opacity:1" fill="#0a271d" d="M 551.5,285.5 C 553.421,286.363 555.421,287.029 557.5,287.5C 562.327,290.663 565.66,294.996 567.5,300.5C 567.667,415.834 567.5,531.167 567,646.5C 566.667,611.833 566.333,577.167 566,542.5C 565.667,542.833 565.333,543.167 565,543.5C 563.705,540.995 563.539,538.328 564.5,535.5C 518.417,534.187 472.25,533.52 426,533.5C 381.167,533.667 336.333,533.833 291.5,534C 289.709,534.415 288.376,535.415 287.5,537C 378.506,536.835 469.172,537.669 559.5,539.5C 468.332,539.167 377.332,539.501 286.5,540.5C 282.726,541.938 280.393,544.605 279.5,548.5C 278.668,580.331 278.168,612.331 278,644.5C 277.667,643.167 277.333,641.833 277,640.5C 274.212,642.412 272.879,645.079 273,648.5C 272.722,647.584 272.222,646.918 271.5,646.5C 271.5,533.167 271.5,419.833 271.5,306.5C 272.233,343.382 273.4,380.382 275,417.5C 279.349,420.611 282.849,419.778 285.5,415C 288.167,414.333 290.833,414.333 293.5,415C 292.167,416 292.167,417 293.5,418C 301.5,418.667 309.5,418.667 317.5,418C 315.041,417.276 314.041,415.943 314.5,414C 304.991,413.83 295.658,413.33 286.5,412.5C 377.833,412.5 469.167,412.5 560.5,412.5C 560.832,375.663 560.498,338.996 559.5,302.5C 558.5,298.167 555.833,295.5 551.5,294.5C 551.158,293.662 550.492,293.328 549.5,293.5C 463.001,292.667 376.334,292.167 289.5,292C 375.5,291.667 461.5,291.333 547.5,291C 546.167,290.667 544.833,290.333 543.5,290C 545.221,289.261 546.887,288.427 548.5,287.5C 532.5,287.167 516.5,286.833 500.5,286.5C 432.317,287.011 363.651,287.011 294.5,286.5C 380.164,285.5 465.831,285.167 551.5,285.5 Z"/></g>
<g><path style="opacity:1" fill="#376d46" d="M 381.5,338.5 C 382.83,344.631 383.497,351.131 383.5,358C 383.333,364.5 383.167,371 383,377.5C 372.135,384.181 360.968,390.181 349.5,395.5C 349.333,382.829 349.5,370.162 350,357.5C 360.481,351.015 370.981,344.682 381.5,338.5 Z"/></g>
<g><path style="opacity:1" fill="#9fbaaa" d="M 312.5,339.5 C 310.52,351.789 309.853,364.456 310.5,377.5C 309.505,364.677 309.171,351.677 309.5,338.5C 310.791,338.263 311.791,338.596 312.5,339.5 Z"/></g>
<g><path style="opacity:1" fill="#396e47" d="M 312.5,339.5 C 323.054,345.362 333.554,351.362 344,357.5C 344.5,370.162 344.667,382.829 344.5,395.5C 332.603,390.552 321.27,384.552 310.5,377.5C 309.853,364.456 310.52,351.789 312.5,339.5 Z"/></g>
<g><path style="opacity:1" fill="#3b724a" d="M 419.5,349.5 C 451.835,349.333 484.168,349.5 516.5,350C 521.741,354.204 521.741,358.537 516.5,363C 484.5,363.667 452.5,363.667 420.5,363C 416.788,360.487 415.622,356.987 417,352.5C 418.045,351.627 418.878,350.627 419.5,349.5 Z"/></g>
<g><path style="opacity:1" fill="#397049" d="M 345.5,313.5 C 356.963,319.153 368.13,325.486 379,332.5C 379.667,333.167 379.667,333.833 379,334.5C 368.479,340.76 357.813,346.76 347,352.5C 336.187,346.76 325.521,340.76 315,334.5C 314.251,333.365 314.417,332.365 315.5,331.5C 325.563,325.474 335.563,319.474 345.5,313.5 Z"/></g>
<g><path style="opacity:1" fill="#c3c9c8" d="M 559.5,302.5 C 560.498,338.996 560.832,375.663 560.5,412.5C 469.167,412.5 377.833,412.5 286.5,412.5C 286.5,412.167 286.5,411.833 286.5,411.5C 377.5,411.5 468.5,411.5 559.5,411.5C 559.5,375.167 559.5,338.833 559.5,302.5 Z"/></g>
<g><path style="opacity:1" fill="#092f24" d="M 328.5,414.5 C 401.332,413.334 474.332,413.168 547.5,414C 545.139,414.197 543.472,415.364 542.5,417.5C 473.169,418.667 403.836,418.833 334.5,418C 336.725,417.439 338.725,416.439 340.5,415C 336.514,414.501 332.514,414.334 328.5,414.5 Z"/></g>
<g><path style="opacity:1" fill="#f1f2f2" d="M 559.5,420.5 C 559.5,457.167 559.5,493.833 559.5,530.5C 468.5,530.5 377.5,530.5 286.5,530.5C 283.189,529.189 280.855,526.855 279.5,523.5C 279.5,492.167 279.5,460.833 279.5,429.5C 279.987,425.18 282.32,422.513 286.5,421.5C 377.332,420.501 468.332,420.167 559.5,420.5 Z"/></g>
<g><path style="opacity:1" fill="#f9f9f9" d="M 286.5,421.5 C 376.06,423.318 465.727,424.151 555.5,424C 556.804,458.781 556.804,493.614 555.5,528.5C 480.625,528.39 405.958,528.39 331.5,528.5C 315.79,528.627 300.124,528.127 284.5,527C 283.338,494.238 283.171,461.405 284,428.5C 284.465,427.069 285.299,425.903 286.5,425C 285.829,424.014 285.829,422.847 286.5,421.5 Z"/></g>
<g><path style="opacity:1" fill="#092c20" d="M 664.5,428.5 C 691.491,449.007 718.158,470.007 744.5,491.5C 750.156,497.078 750.99,503.412 747,510.5C 742.5,515.667 738,520.833 733.5,526C 728.657,528.835 723.657,529.168 718.5,527C 692.758,506.047 666.925,485.213 641,464.5C 638.135,458.983 637.802,453.317 640,447.5C 644.122,441.709 648.622,436.209 653.5,431C 656.87,428.922 660.537,428.089 664.5,428.5 Z"/></g>
<g><path style="opacity:1" fill="#092b20" d="M 341.5,513.5 C 339.485,512.076 337.152,511.41 334.5,511.5C 320.939,505.94 312.939,495.94 310.5,481.5C 310.375,475.797 310.708,470.13 311.5,464.5C 321.697,441.737 338.697,434.237 362.5,442C 385.407,456.128 390.241,474.961 377,498.5C 367.726,509.428 355.892,514.428 341.5,513.5 Z"/></g>
<g><path style="opacity:1" fill="#ebedec" d="M 344.5,451.5 C 347.272,451.22 349.772,451.887 352,453.5C 352.453,463.206 351.953,472.873 350.5,482.5C 347.709,484.04 345.209,483.706 343,481.5C 341.766,472.191 341.433,462.858 342,453.5C 342.995,452.934 343.828,452.267 344.5,451.5 Z"/></g>
<g><path style="opacity:1" fill="#f0f2f1" d="M 673.5,421.5 C 699.191,442.197 724.858,462.864 750.5,483.5C 749.761,483.369 749.094,483.536 748.5,484C 749.696,484.654 749.696,485.154 748.5,485.5C 741.943,482.355 740.943,483.689 745.5,489.5C 745.137,490.183 744.804,490.85 744.5,491.5C 718.158,470.007 691.491,449.007 664.5,428.5C 665.009,427.659 664.343,427.159 662.5,427C 665.167,426 667.833,425 670.5,424C 671.249,422.266 671.749,420.433 672,418.5C 672.232,419.737 672.732,420.737 673.5,421.5 Z"/></g>
<g><path style="opacity:1" fill="#3f744e" d="M 420.5,468.5 C 452.168,468.333 483.835,468.5 515.5,469C 520.626,471.553 521.793,475.386 519,480.5C 518.097,481.701 516.931,482.535 515.5,483C 483.833,483.667 452.167,483.667 420.5,483C 415.214,478.169 415.214,473.335 420.5,468.5 Z"/></g>
<g><path style="opacity:1" fill="#657972" d="M 311.5,464.5 C 310.708,470.13 310.375,475.797 310.5,481.5C 309.837,479.359 309.503,477.025 309.5,474.5C 309.315,470.859 309.981,467.526 311.5,464.5 Z"/></g>
<g><path style="opacity:1" fill="#e3e6e5" d="M 344.5,489.5 C 351.803,489.602 353.803,492.769 350.5,499C 341.219,500.234 339.219,497.067 344.5,489.5 Z"/></g>
<g><path style="opacity:1" fill="#0d2e21" d="M 804.5,438.5 C 805.552,438.351 806.552,438.517 807.5,439C 843.833,469.333 880.167,499.667 916.5,530C 906.634,537.768 895.967,544.268 884.5,549.5C 851.135,523.48 818.135,496.98 785.5,470C 784.196,469.196 783.529,468.029 783.5,466.5C 790.491,457.173 797.491,447.84 804.5,438.5 Z"/></g>
<g><path style="opacity:1" fill="#0c311f" d="M 829.5,478.5 C 830.5,478.5 831.5,478.5 832.5,478.5C 832.089,481.276 832.922,481.943 835,480.5C 836.541,482.017 838.375,483.184 840.5,484C 839.809,485.067 839.309,486.234 839,487.5C 838.333,488.833 837.667,488.833 837,487.5C 836.56,489.076 835.727,490.41 834.5,491.5C 835.898,493.13 836.898,494.964 837.5,497C 836.833,497.333 836.167,497.667 835.5,498C 837.592,498.953 837.925,500.286 836.5,502C 837.678,502.967 839.011,503.467 840.5,503.5C 841.386,502.675 841.719,501.675 841.5,500.5C 842.822,500.33 843.989,500.663 845,501.5C 845.044,499.24 844.211,497.24 842.5,495.5C 842.887,494.28 843.72,493.613 845,493.5C 848.076,496.145 851.076,496.145 854,493.5C 854.309,495.391 853.475,496.725 851.5,497.5C 853.743,498.474 856.076,498.808 858.5,498.5C 858.292,496.08 858.626,493.747 859.5,491.5C 858.312,491.693 856.978,491.193 855.5,490C 856.552,488.284 855.886,487.284 853.5,487C 853.676,485.308 854.176,483.808 855,482.5C 857.44,483.274 858.773,484.94 859,487.5C 860,487.167 861,486.833 862,486.5C 862.507,487.996 862.007,489.163 860.5,490C 862.365,492.365 864.032,492.532 865.5,490.5C 867.481,491.105 867.815,492.105 866.5,493.5C 867.04,494.748 867.707,495.915 868.5,497C 871.409,498.99 874.409,499.99 877.5,500C 875.388,500.906 874.555,502.406 875,504.5C 875.691,502.109 876.691,502.109 878,504.5C 879.049,503.483 880.216,503.316 881.5,504C 882.641,504.741 882.641,505.575 881.5,506.5C 883.18,507.769 884.347,509.436 885,511.5C 887.059,511.554 889.226,511.387 891.5,511C 889.61,512.873 887.61,513.706 885.5,513.5C 886.167,514.167 886.833,514.833 887.5,515.5C 887.167,515.833 886.833,516.167 886.5,516.5C 883.916,515.607 881.249,515.274 878.5,515.5C 878.719,514.325 878.386,513.325 877.5,512.5C 873.969,514.283 872.469,513.283 873,509.5C 873.725,511.158 874.892,511.658 876.5,511C 874.667,509.167 872.833,507.333 871,505.5C 868.866,507.578 869.032,509.412 871.5,511C 871.335,512.117 871.002,513.284 870.5,514.5C 871.624,515.914 872.624,517.414 873.5,519C 870.917,520.74 868.584,522.074 866.5,523C 867.313,524.314 868.313,525.481 869.5,526.5C 868.209,527.825 866.876,529.158 865.5,530.5C 864.777,528.57 864.111,526.237 863.5,523.5C 860.86,523.046 858.527,521.879 856.5,520C 855.107,518.829 854.273,517.329 854,515.5C 853.784,517.384 853.117,519.051 852,520.5C 851.308,519.975 850.808,519.308 850.5,518.5C 851.52,516.568 851.687,514.568 851,512.5C 850.667,513.167 850.333,513.833 850,514.5C 849.259,513.359 848.425,513.359 847.5,514.5C 846.571,513.311 846.238,511.978 846.5,510.5C 845.325,510.719 844.325,510.386 843.5,509.5C 844.641,508.575 844.641,507.741 843.5,507C 847.401,508.102 849.234,506.602 849,502.5C 848.632,503.91 847.799,504.91 846.5,505.5C 844.584,504.752 842.584,504.752 840.5,505.5C 840.5,506.5 840.5,507.5 840.5,508.5C 837.362,507.874 834.862,506.208 833,503.5C 832.667,504.167 832.333,504.833 832,505.5C 830.719,501.763 828.219,499.263 824.5,498C 825.061,496.434 824.394,495.101 822.5,494C 821.207,493.51 819.873,493.343 818.5,493.5C 818.034,491.799 818.034,490.299 818.5,489C 816.841,487.159 814.841,485.992 812.5,485.5C 812.491,483.692 812.991,482.025 814,480.5C 817.615,485.112 822.115,488.612 827.5,491C 828.804,491.804 829.471,492.971 829.5,494.5C 828.463,499.355 829.463,499.355 832.5,494.5C 832.069,493.707 831.735,492.873 831.5,492C 833.576,490.756 834.576,488.923 834.5,486.5C 833.5,486.5 832.5,486.5 831.5,486.5C 830.828,483.65 829.161,481.483 826.5,480C 827.449,479.383 828.282,479.549 829,480.5C 829.464,479.906 829.631,479.239 829.5,478.5 Z"/></g>
<g><path style="opacity:1" fill="#778a84" d="M 334.5,511.5 C 337.152,511.41 339.485,512.076 341.5,513.5C 338.848,513.59 336.515,512.924 334.5,511.5 Z"/></g>
<g><path style="opacity:1" fill="#0d3125" d="M 279.5,429.5 C 279.5,460.833 279.5,492.167 279.5,523.5C 278.535,524.721 278.702,526.054 280,527.5C 282.016,529.684 284.183,531.684 286.5,533.5C 284.352,533.344 282.019,533.844 279.5,535C 278.183,536.659 276.517,537.826 274.5,538.5C 273.167,503.167 273.167,467.833 274.5,432.5C 275.167,432.167 275.833,431.833 276.5,431.5C 277.333,461.828 277.833,492.161 278,522.5C 278.168,491.331 278.668,460.331 279.5,429.5 Z"/></g>
<g><path style="opacity:1" fill="#b4beba" d="M 559.5,420.5 C 560.498,457.33 560.832,494.33 560.5,531.5C 468.998,531.833 377.665,531.499 286.5,530.5C 377.5,530.5 468.5,530.5 559.5,530.5C 559.5,493.833 559.5,457.167 559.5,420.5 Z"/></g>
<g><path style="opacity:1" fill="#c0c8c6" d="M 286.5,540.5 C 377.332,539.501 468.332,539.167 559.5,539.5C 560.833,574.833 560.833,610.167 559.5,645.5C 559.5,610.5 559.5,575.5 559.5,540.5C 468.5,540.5 377.5,540.5 286.5,540.5 Z"/></g>
<g><path style="opacity:1" fill="#f8f8f8" d="M 286.5,540.5 C 377.5,540.5 468.5,540.5 559.5,540.5C 559.5,575.5 559.5,610.5 559.5,645.5C 558.833,650.833 555.833,653.833 550.5,654.5C 550.624,653.803 550.624,652.97 550.5,652C 463.535,652.026 376.535,652.026 289.5,652C 288.366,653.016 288.699,653.683 290.5,654C 289.906,654.464 289.239,654.631 288.5,654.5C 284.246,653.415 281.413,650.748 280,646.5C 279.5,613.835 279.333,581.168 279.5,548.5C 280.393,544.605 282.726,541.938 286.5,540.5 Z"/></g>
<g><path style="opacity:1" fill="#082d21" d="M 273.5,552.5 C 274.847,553.171 276.014,553.171 277,552.5C 277.833,578.506 277.667,604.506 276.5,630.5C 275.749,631.376 275.249,632.376 275,633.5C 273.509,606.648 273.009,579.648 273.5,552.5 Z"/></g>
<g><path style="opacity:1" fill="#3d704b" d="M 958.5,559.5 C 957.778,559.918 957.278,560.584 957,561.5C 954.552,559.002 951.719,557.502 948.5,557C 949.108,559.184 948.441,561.184 946.5,563C 949.42,563.408 951.754,564.741 953.5,567C 952.552,567.483 951.552,567.649 950.5,567.5C 950.5,568.5 950.5,569.5 950.5,570.5C 948.058,570.646 947.391,569.813 948.5,568C 947.5,567.5 946.5,567 945.5,566.5C 944.618,567.76 943.618,568.926 942.5,570C 943.833,570.667 943.833,571.333 942.5,572C 943.167,572.333 943.833,572.667 944.5,573C 943.5,573.833 942.5,574.667 941.5,575.5C 943.263,578.789 942.429,581.122 939,582.5C 937.951,581.483 936.784,581.316 935.5,582C 934.495,583.507 933.162,584.673 931.5,585.5C 932.083,587.548 932.083,589.381 931.5,591C 933.618,591.26 935.284,592.26 936.5,594C 938.473,594.495 940.473,594.662 942.5,594.5C 942.351,593.448 942.517,592.448 943,591.5C 943.718,592.451 944.551,592.617 945.5,592C 944.289,590.887 944.289,589.72 945.5,588.5C 946.816,587.193 947.816,585.693 948.5,584C 951.646,583.89 952.646,582.557 951.5,580C 952,579.833 952.5,579.667 953,579.5C 955.102,580.038 955.935,581.038 955.5,582.5C 957.256,582.64 958.922,582.14 960.5,581C 959.167,580.667 957.833,580.333 956.5,580C 959.5,579.333 962.5,579.333 965.5,580C 968.211,582.344 971.044,584.511 974,586.5C 973.791,590.459 975.625,592.126 979.5,591.5C 979.285,593.179 979.952,594.179 981.5,594.5C 980.304,596.981 978.804,596.981 977,594.5C 976.833,594.833 976.667,595.167 976.5,595.5C 977.833,596.5 977.833,597.5 976.5,598.5C 977.274,599.711 978.107,599.711 979,598.5C 979.333,601.5 979.667,604.5 980,607.5C 983.048,606.217 983.215,604.551 980.5,602.5C 981.689,601.571 983.022,601.238 984.5,601.5C 984.5,603.833 984.5,606.167 984.5,608.5C 982.54,609.138 980.707,609.138 979,608.5C 977.757,603.754 976.257,599.088 974.5,594.5C 971.515,592.555 968.182,591.555 964.5,591.5C 963.864,595.587 962.364,599.253 960,602.5C 958.266,601.751 956.433,601.251 954.5,601C 955.299,599.251 954.632,597.918 952.5,597C 950.866,596.506 949.199,596.34 947.5,596.5C 947.5,597.5 947.5,598.5 947.5,599.5C 951.302,599.895 951.469,600.895 948,602.5C 943.88,601.752 940.547,599.752 938,596.5C 935.526,597.465 933.026,597.632 930.5,597C 931.293,598.085 931.96,599.252 932.5,600.5C 928.314,603.262 926.648,606.928 927.5,611.5C 925.801,611.62 924.135,611.954 922.5,612.5C 920.971,612.471 919.804,611.804 919,610.5C 914.295,611.882 914.461,612.549 919.5,612.5C 919.33,613.822 919.663,614.989 920.5,616C 916.109,616.683 911.776,617.516 907.5,618.5C 907.66,620.199 907.494,621.866 907,623.5C 906.768,622.263 906.268,621.263 905.5,620.5C 907.971,617.321 907.971,614.155 905.5,611C 906.799,609.674 908.132,608.34 909.5,607C 906.249,607.258 903.083,608.092 900,609.5C 898.296,612.507 897.462,615.507 897.5,618.5C 899.343,618.755 901.343,618.922 903.5,619C 900.068,621.072 896.402,621.738 892.5,621C 890.53,618.684 888.196,616.851 885.5,615.5C 881.596,620.77 877.263,625.603 872.5,630C 874.699,629.255 877.033,628.421 879.5,627.5C 880.187,625.726 881.02,624.059 882,622.5C 883.487,623.253 883.654,624.086 882.5,625C 885.128,626.626 887.461,628.626 889.5,631C 887.821,631.395 886.155,631.228 884.5,630.5C 882.971,630.529 881.804,631.196 881,632.5C 879.848,635.452 879.348,638.452 879.5,641.5C 877.496,641.649 875.496,640.982 873.5,639.5C 870.855,640.108 868.188,640.608 865.5,641C 866.769,643.139 866.769,645.305 865.5,647.5C 863.945,644.791 863.278,642.125 863.5,639.5C 863.59,637.575 864.59,636.408 866.5,636C 865.5,635 864.5,634 863.5,633C 867.167,632 867.5,630.333 864.5,628C 865.167,627.333 865.833,626.667 866.5,626C 864.82,625.966 863.32,625.799 862,625.5C 861.517,626.448 861.351,627.448 861.5,628.5C 858.797,628.955 856.13,629.622 853.5,630.5C 851.647,629.811 850.481,628.478 850,626.5C 848.563,630.972 848.063,635.639 848.5,640.5C 847.506,630.013 847.172,619.346 847.5,608.5C 848.326,612.982 848.826,617.649 849,622.5C 849.308,623.308 849.808,623.975 850.5,624.5C 853.849,619.003 857.682,614.003 862,609.5C 862.483,608.552 862.649,607.552 862.5,606.5C 863.833,606.5 865.167,606.5 866.5,606.5C 866.281,605.325 866.614,604.325 867.5,603.5C 868.609,604.59 869.609,604.59 870.5,603.5C 867.707,598.093 868.54,593.76 873,590.5C 873.167,593.333 874.667,594.833 877.5,595C 876.5,595.333 875.5,595.667 874.5,596C 876.664,596.433 878.664,595.933 880.5,594.5C 881.647,594.818 882.481,595.484 883,596.5C 883.167,595.667 883.333,594.833 883.5,594C 883.031,592.113 882.031,590.613 880.5,589.5C 880.709,588.914 881.043,588.414 881.5,588C 879.037,587.024 876.37,585.691 873.5,584C 874.667,583.5 875.5,582.667 876,581.5C 876.414,581.957 876.914,582.291 877.5,582.5C 879.272,581.261 880.939,579.428 882.5,577C 882.043,576.586 881.709,576.086 881.5,575.5C 883.156,573.588 883.489,571.588 882.5,569.5C 881.914,569.709 881.414,570.043 881,570.5C 880.251,569.365 880.417,568.365 881.5,567.5C 883.021,567.12 884.687,566.954 886.5,567C 888.054,565.108 889.888,563.608 892,562.5C 893.667,563.5 895.333,564.5 897,565.5C 898.788,564.7 900.455,564.366 902,564.5C 902.536,566.869 903.703,568.869 905.5,570.5C 905.291,571.086 904.957,571.586 904.5,572C 907.621,573.608 910.954,574.441 914.5,574.5C 914.5,575.5 914.5,576.5 914.5,577.5C 917.084,577.431 919.084,576.265 920.5,574C 919.167,571.667 919.167,569.333 920.5,567C 918.561,566.092 917.561,564.592 917.5,562.5C 915.058,562.119 914.391,562.786 915.5,564.5C 915,564.833 914.5,565.167 914,565.5C 911.914,563.751 909.581,562.417 907,561.5C 905.626,559.253 904.126,557.087 902.5,555C 904.771,553.338 907.104,551.671 909.5,550C 908.906,549.536 908.239,549.369 907.5,549.5C 912.604,545.572 918.104,542.239 924,539.5C 935.288,546.56 946.788,553.226 958.5,559.5 Z"/></g>
<g><path style="opacity:1" fill="#19442f" d="M 675.5,546.5 C 679.273,545.822 682.106,547.156 684,550.5C 684.667,566.5 684.667,582.5 684,598.5C 679.955,602.489 675.955,602.489 672,598.5C 671.333,582.5 671.333,566.5 672,550.5C 673.376,549.295 674.542,547.962 675.5,546.5 Z"/></g>
<g><path style="opacity:1" fill="#3d754b" d="M 907.5,549.5 C 908.239,549.369 908.906,549.536 909.5,550C 907.104,551.671 904.771,553.338 902.5,555C 904.126,557.087 905.626,559.253 907,561.5C 909.581,562.417 911.914,563.751 914,565.5C 914.5,565.167 915,564.833 915.5,564.5C 914.391,562.786 915.058,562.119 917.5,562.5C 917.561,564.592 918.561,566.092 920.5,567C 919.167,569.333 919.167,571.667 920.5,574C 919.084,576.265 917.084,577.431 914.5,577.5C 914.5,576.5 914.5,575.5 914.5,574.5C 910.954,574.441 907.621,573.608 904.5,572C 904.957,571.586 905.291,571.086 905.5,570.5C 903.703,568.869 902.536,566.869 902,564.5C 900.455,564.366 898.788,564.7 897,565.5C 895.333,564.5 893.667,563.5 892,562.5C 889.888,563.608 888.054,565.108 886.5,567C 884.687,566.954 883.021,567.12 881.5,567.5C 880.417,568.365 880.251,569.365 881,570.5C 881.414,570.043 881.914,569.709 882.5,569.5C 883.489,571.588 883.156,573.588 881.5,575.5C 881.709,576.086 882.043,576.586 882.5,577C 880.939,579.428 879.272,581.261 877.5,582.5C 876.914,582.291 876.414,581.957 876,581.5C 875.5,582.667 874.667,583.5 873.5,584C 876.37,585.691 879.037,587.024 881.5,588C 881.043,588.414 880.709,588.914 880.5,589.5C 882.031,590.613 883.031,592.113 883.5,594C 883.333,594.833 883.167,595.667 883,596.5C 882.481,595.484 881.647,594.818 880.5,594.5C 878.664,595.933 876.664,596.433 874.5,596C 875.5,595.667 876.5,595.333 877.5,595C 874.667,594.833 873.167,593.333 873,590.5C 868.54,593.76 867.707,598.093 870.5,603.5C 869.609,604.59 868.609,604.59 867.5,603.5C 866.614,604.325 866.281,605.325 866.5,606.5C 865.167,606.5 863.833,606.5 862.5,606.5C 862.649,607.552 862.483,608.552 862,609.5C 857.682,614.003 853.849,619.003 850.5,624.5C 849.808,623.975 849.308,623.308 849,622.5C 848.826,617.649 848.326,612.982 847.5,608.5C 847.333,596.162 847.5,583.829 848,571.5C 848.5,571 849,570.5 849.5,570C 870.158,566.616 889.491,559.783 907.5,549.5 Z"/></g>
<g><path style="opacity:1" fill="#3d754b" d="M 958.5,559.5 C 971.214,564.552 984.214,568.219 997.5,570.5C 991.645,574.055 985.312,576.555 978.5,578C 977.426,578.739 976.759,579.739 976.5,581C 976.643,583.155 976.81,585.322 977,587.5C 979.368,583.697 980.202,584.03 979.5,588.5C 980.365,589.583 981.365,589.749 982.5,589C 982.167,588.667 981.833,588.333 981.5,588C 983.886,587.716 984.552,586.716 983.5,585C 984.833,584.667 986.167,584.333 987.5,584C 986.289,583.107 986.289,582.274 987.5,581.5C 988.251,582.376 988.751,583.376 989,584.5C 989.333,583.833 989.667,583.167 990,582.5C 991.202,584.677 991.702,587.011 991.5,589.5C 988.167,589.5 986.5,591.167 986.5,594.5C 984.833,594.5 983.167,594.5 981.5,594.5C 979.952,594.179 979.285,593.179 979.5,591.5C 975.625,592.126 973.791,590.459 974,586.5C 971.044,584.511 968.211,582.344 965.5,580C 962.5,579.333 959.5,579.333 956.5,580C 957.833,580.333 959.167,580.667 960.5,581C 958.922,582.14 957.256,582.64 955.5,582.5C 955.935,581.038 955.102,580.038 953,579.5C 952.5,579.667 952,579.833 951.5,580C 952.646,582.557 951.646,583.89 948.5,584C 947.816,585.693 946.816,587.193 945.5,588.5C 944.289,589.72 944.289,590.887 945.5,592C 944.551,592.617 943.718,592.451 943,591.5C 942.517,592.448 942.351,593.448 942.5,594.5C 940.473,594.662 938.473,594.495 936.5,594C 935.284,592.26 933.618,591.26 931.5,591C 932.083,589.381 932.083,587.548 931.5,585.5C 933.162,584.673 934.495,583.507 935.5,582C 936.784,581.316 937.951,581.483 939,582.5C 942.429,581.122 943.263,578.789 941.5,575.5C 942.5,574.667 943.5,573.833 944.5,573C 943.833,572.667 943.167,572.333 942.5,572C 943.833,571.333 943.833,570.667 942.5,570C 943.618,568.926 944.618,567.76 945.5,566.5C 946.5,567 947.5,567.5 948.5,568C 947.391,569.813 948.058,570.646 950.5,570.5C 950.5,569.5 950.5,568.5 950.5,567.5C 951.552,567.649 952.552,567.483 953.5,567C 951.754,564.741 949.42,563.408 946.5,563C 948.441,561.184 949.108,559.184 948.5,557C 951.719,557.502 954.552,559.002 957,561.5C 957.278,560.584 957.778,559.918 958.5,559.5 Z"/></g>
<g><path style="opacity:1" fill="#1b4531" d="M 731.5,575.5 C 741.253,575.075 743.753,579.075 739,587.5C 729.863,595.636 721.03,604.136 712.5,613C 704.83,614.326 701.997,611.159 704,603.5C 713.369,594.298 722.536,584.965 731.5,575.5 Z"/></g>
<g><path style="opacity:1" fill="#2a5a3c" d="M 618.5,575.5 C 621.893,575.062 624.893,575.895 627.5,578C 635.302,586.803 643.469,595.303 652,603.5C 653.85,609.134 652.017,612.8 646.5,614.5C 635.96,605.466 625.793,595.799 616,585.5C 615.219,584.271 614.719,582.938 614.5,581.5C 615.432,579.235 616.765,577.235 618.5,575.5 Z"/></g>
<g><path style="opacity:1" fill="#f4f6f5" d="M 953.5,630.5 C 940.7,643.468 928.034,656.634 915.5,670C 913.833,670.667 912.167,670.667 910.5,670C 901.333,660.833 892.167,651.667 883,642.5C 884.154,637.927 886.987,634.594 891.5,632.5C 893.783,632.608 895.783,633.441 897.5,635C 902.709,640.041 907.709,645.208 912.5,650.5C 926.988,635.845 941.321,621.012 955.5,606C 960.978,606.098 964.978,608.765 967.5,614C 962.949,619.606 958.282,625.106 953.5,630.5 Z"/></g>
<g><path style="opacity:1" fill="#0c2d22" d="M 609.5,632.5 C 655.501,632.333 701.501,632.5 747.5,633C 755.879,637.091 757.712,643.258 753,651.5C 751.829,652.893 750.329,653.727 748.5,654C 701.5,654.667 654.5,654.667 607.5,654C 599.051,645.882 599.718,638.715 609.5,632.5 Z"/></g>
<g><path style="opacity:1" fill="#3d754b" d="M 905.5,620.5 C 904.07,620.421 902.736,620.754 901.5,621.5C 900.772,623.193 899.772,624.693 898.5,626C 899.77,628.626 899.104,630.793 896.5,632.5C 894.684,631.265 893.017,631.265 891.5,632.5C 886.987,634.594 884.154,637.927 883,642.5C 892.167,651.667 901.333,660.833 910.5,670C 912.167,670.667 913.833,670.667 915.5,670C 928.034,656.634 940.7,643.468 953.5,630.5C 955.411,630.574 956.578,631.574 957,633.5C 959.645,637.528 958.812,640.528 954.5,642.5C 952.531,640.941 950.698,639.274 949,637.5C 948.5,638.667 947.667,639.5 946.5,640C 949.971,641.393 949.971,643.226 946.5,645.5C 945.201,644.91 944.368,643.91 944,642.5C 943.167,644.667 941.667,646.167 939.5,647C 940.833,647.667 942.167,648.333 943.5,649C 942.426,649.739 941.759,650.739 941.5,652C 942.409,653.789 942.576,655.623 942,657.5C 941,656.167 940,656.167 939,657.5C 937.004,657.004 935.337,656.004 934,654.5C 929.946,657.711 926.279,661.377 923,665.5C 923.538,668.866 925.371,671.532 928.5,673.5C 927.977,675.933 926.81,677.933 925,679.5C 922.322,678.164 919.489,677.33 916.5,677C 916.833,676.667 917.167,676.333 917.5,676C 915.649,675.163 913.816,674.329 912,673.5C 909.016,676.085 907.349,679.418 907,683.5C 906.033,682.322 905.533,680.989 905.5,679.5C 904.614,680.325 904.281,681.325 904.5,682.5C 901.289,682.988 898.456,682.321 896,680.5C 896.148,684.12 894.648,686.62 891.5,688C 890.929,689.205 890.262,690.372 889.5,691.5C 885.883,688.742 883.883,689.742 883.5,694.5C 880.167,695.167 876.833,695.833 873.5,696.5C 858.69,680.868 850.357,662.201 848.5,640.5C 848.063,635.639 848.563,630.972 850,626.5C 850.481,628.478 851.647,629.811 853.5,630.5C 856.13,629.622 858.797,628.955 861.5,628.5C 861.351,627.448 861.517,626.448 862,625.5C 863.32,625.799 864.82,625.966 866.5,626C 865.833,626.667 865.167,627.333 864.5,628C 867.5,630.333 867.167,632 863.5,633C 864.5,634 865.5,635 866.5,636C 864.59,636.408 863.59,637.575 863.5,639.5C 863.278,642.125 863.945,644.791 865.5,647.5C 866.769,645.305 866.769,643.139 865.5,641C 868.188,640.608 870.855,640.108 873.5,639.5C 875.496,640.982 877.496,641.649 879.5,641.5C 879.348,638.452 879.848,635.452 881,632.5C 881.804,631.196 882.971,630.529 884.5,630.5C 886.155,631.228 887.821,631.395 889.5,631C 887.461,628.626 885.128,626.626 882.5,625C 883.654,624.086 883.487,623.253 882,622.5C 881.02,624.059 880.187,625.726 879.5,627.5C 877.033,628.421 874.699,629.255 872.5,630C 877.263,625.603 881.596,620.77 885.5,615.5C 888.196,616.851 890.53,618.684 892.5,621C 896.402,621.738 900.068,621.072 903.5,619C 901.343,618.922 899.343,618.755 897.5,618.5C 897.462,615.507 898.296,612.507 900,609.5C 903.083,608.092 906.249,607.258 909.5,607C 908.132,608.34 906.799,609.674 905.5,611C 907.971,614.155 907.971,617.321 905.5,620.5 Z"/></g>
<g><path style="opacity:1" fill="#397247" d="M 999.5,636.5 C 997.382,664.736 985.715,688.069 964.5,706.5C 961.75,704.992 960.916,702.659 962,699.5C 963.684,697.649 965.517,695.982 967.5,694.5C 969.157,698.361 970.657,698.361 972,694.5C 972.494,692.866 972.66,691.199 972.5,689.5C 971.5,689.5 970.5,689.5 969.5,689.5C 969.719,690.675 969.386,691.675 968.5,692.5C 968.167,691.833 967.833,691.167 967.5,690.5C 968.547,688.944 969.214,687.277 969.5,685.5C 973.17,685.327 975.67,686.993 977,690.5C 975.797,687.36 974.63,684.026 973.5,680.5C 976.59,678.049 979.757,678.049 983,680.5C 984.464,676.801 983.964,673.301 981.5,670C 983.809,667.949 985.976,668.116 988,670.5C 988.167,670.167 988.333,669.833 988.5,669.5C 987.385,668.402 987.385,667.235 988.5,666C 987.576,664.189 986.743,664.355 986,666.5C 982.919,665.004 982.753,663.337 985.5,661.5C 986.524,662.853 987.857,663.52 989.5,663.5C 989.329,666.797 989.995,667.131 991.5,664.5C 988.921,661.39 987.588,658.057 987.5,654.5C 993.774,657.227 994.107,656.393 988.5,652C 989.962,649.16 991.962,647.66 994.5,647.5C 992.913,645.554 993.246,644.054 995.5,643C 992.044,641.651 990.877,639.151 992,635.5C 992.903,634.299 994.069,633.465 995.5,633C 993.956,632.71 992.623,632.044 991.5,631C 994.309,629.412 994.975,627.245 993.5,624.5C 994.325,623.614 995.325,623.281 996.5,623.5C 996.66,621.801 996.494,620.134 996,618.5C 994.366,621.461 991.866,623.295 988.5,624C 989.167,625.333 989.833,626.667 990.5,628C 988.202,627.243 986.202,625.743 984.5,623.5C 985.376,622.749 986.376,622.249 987.5,622C 986.483,620.951 986.316,619.784 987,618.5C 992.194,615.453 992.027,611.287 986.5,606C 989.079,605.568 990.579,606.735 991,609.5C 991.113,605.457 992.279,601.791 994.5,598.5C 995.086,598.709 995.586,599.043 996,599.5C 996.667,594.833 996.667,590.167 996,585.5C 995.282,584.549 994.449,584.383 993.5,585C 994.711,585.893 994.711,586.726 993.5,587.5C 992.682,585.892 992.015,584.225 991.5,582.5C 993.47,579.032 995.636,575.699 998,572.5C 998.333,573.167 998.667,573.833 999,574.5C 999.5,595.164 999.667,615.831 999.5,636.5 Z"/></g>
<g><path style="opacity:1" fill="#0b2c22" d="M 567.5,300.5 C 568.666,416.333 568.833,532.333 568,648.5C 565.101,655.732 559.934,660.565 552.5,663C 463.5,663.667 374.5,663.667 285.5,663C 277.708,660.05 273.042,654.55 271.5,646.5C 272.222,646.918 272.722,647.584 273,648.5C 272.879,645.079 274.212,642.412 277,640.5C 277.333,641.833 277.667,643.167 278,644.5C 278.168,612.331 278.668,580.331 279.5,548.5C 279.333,581.168 279.5,613.835 280,646.5C 281.413,650.748 284.246,653.415 288.5,654.5C 375.833,655.833 463.167,655.833 550.5,654.5C 555.833,653.833 558.833,650.833 559.5,645.5C 560.833,610.167 560.833,574.833 559.5,539.5C 469.172,537.669 378.506,536.835 287.5,537C 288.376,535.415 289.709,534.415 291.5,534C 336.333,533.833 381.167,533.667 426,533.5C 472.25,533.52 518.417,534.187 564.5,535.5C 563.539,538.328 563.705,540.995 565,543.5C 565.333,543.167 565.667,542.833 566,542.5C 566.333,577.167 566.667,611.833 567,646.5C 567.5,531.167 567.667,415.834 567.5,300.5 Z"/></g>
<g><path style="opacity:1" fill="#f0f2f2" d="M 550.5,654.5 C 463.167,655.833 375.833,655.833 288.5,654.5C 289.239,654.631 289.906,654.464 290.5,654C 288.699,653.683 288.366,653.016 289.5,652C 376.535,652.026 463.535,652.026 550.5,652C 550.624,652.97 550.624,653.803 550.5,654.5 Z"/></g>
<g><path style="opacity:1" fill="#0b2e23" d="M 319.5,610.5 C 328.374,616.192 337.541,621.525 347,626.5C 355.89,622.306 364.39,617.473 372.5,612C 374.345,610.872 376.345,610.372 378.5,610.5C 380.151,611.97 381.985,613.303 384,614.5C 384.684,615.784 384.517,616.951 383.5,618C 371.625,625.103 359.625,631.936 347.5,638.5C 335.268,632.273 323.268,625.606 311.5,618.5C 310.386,617.277 310.219,615.944 311,614.5C 313.397,612.218 316.231,610.884 319.5,610.5 Z"/></g>
<g><path style="opacity:1" fill="#0b2d21" d="M 383.5,595.5 C 384.412,596.738 384.579,598.072 384,599.5C 382.348,600.399 380.848,601.399 379.5,602.5C 368.786,608.61 357.952,614.61 347,620.5C 341.699,618.107 336.866,615.107 332.5,611.5C 332.196,610.85 331.863,610.183 331.5,609.5C 332.908,605.805 335.574,604.138 339.5,604.5C 341.423,604.795 343.09,605.628 344.5,607C 346.167,607.667 347.833,607.667 349.5,607C 358.036,601.634 366.703,596.468 375.5,591.5C 378.22,592.86 380.886,594.193 383.5,595.5 Z"/></g>
<g><path style="opacity:1" fill="#e8ebea" d="M 379.5,602.5 C 379.279,603.735 378.612,604.735 377.5,605.5C 378.309,607.071 378.643,608.738 378.5,610.5C 376.345,610.372 374.345,610.872 372.5,612C 364.39,617.473 355.89,622.306 347,626.5C 337.541,621.525 328.374,616.192 319.5,610.5C 321.632,610.446 322.965,609.446 323.5,607.5C 326.352,609.091 329.352,610.424 332.5,611.5C 336.866,615.107 341.699,618.107 347,620.5C 357.952,614.61 368.786,608.61 379.5,602.5 Z"/></g>
<g><path style="opacity:1" fill="#09261c" d="M 328.5,597.5 C 332.372,599.597 336.039,601.931 339.5,604.5C 335.574,604.138 332.908,605.805 331.5,609.5C 331.863,610.183 332.196,610.85 332.5,611.5C 329.352,610.424 326.352,609.091 323.5,607.5C 322.205,606.512 320.872,605.512 319.5,604.5C 322.208,601.791 325.208,599.458 328.5,597.5 Z"/></g>
<g><path style="opacity:1" fill="#103729" d="M 317.5,591.5 C 321.335,593.25 325.001,595.25 328.5,597.5C 325.208,599.458 322.208,601.791 319.5,604.5C 317.193,603.347 314.86,602.18 312.5,601C 311.196,600.196 310.529,599.029 310.5,597.5C 312.638,595.265 314.971,593.265 317.5,591.5 Z"/></g>
<g><path style="opacity:1" fill="#397049" d="M 419.5,589.5 C 451.835,589.333 484.168,589.5 516.5,590C 521.757,594.156 521.757,598.489 516.5,603C 484.5,603.667 452.5,603.667 420.5,603C 416.788,600.487 415.622,596.987 417,592.5C 418.045,591.627 418.878,590.627 419.5,589.5 Z"/></g>
<g><path style="opacity:1" fill="#e9ebea" d="M 382.5,582.5 C 382.81,583.738 383.31,583.738 384,582.5C 384.483,583.448 384.649,584.448 384.5,585.5C 382.176,585.662 380.509,586.828 379.5,589C 380.563,590.188 381.897,590.688 383.5,590.5C 382.929,592.36 382.929,594.027 383.5,595.5C 380.886,594.193 378.22,592.86 375.5,591.5C 366.703,596.468 358.036,601.634 349.5,607C 347.833,607.667 346.167,607.667 344.5,607C 343.09,605.628 341.423,604.795 339.5,604.5C 336.039,601.931 332.372,599.597 328.5,597.5C 325.001,595.25 321.335,593.25 317.5,591.5C 314.668,589.635 312.335,587.135 310.5,584C 311.448,583.517 312.448,583.351 313.5,583.5C 324.545,589.708 335.711,595.708 347,601.5C 359.066,595.551 370.899,589.218 382.5,582.5 Z"/></g>
<g><path style="opacity:1" fill="#0c2e20" d="M 382.5,582.5 C 370.899,589.218 359.066,595.551 347,601.5C 335.711,595.708 324.545,589.708 313.5,583.5C 310.687,582.257 310.021,580.257 311.5,577.5C 323.151,570.427 334.985,563.76 347,557.5C 358.853,563.846 370.686,570.346 382.5,577C 385.108,578.937 385.108,580.77 382.5,582.5 Z"/></g>
<g><path style="opacity:1" fill="#3b714b" d="M 997.5,570.5 C 998.75,570.577 999.583,571.244 1000,572.5C 1000.83,594.004 1000.66,615.337 999.5,636.5C 999.667,615.831 999.5,595.164 999,574.5C 998.667,573.833 998.333,573.167 998,572.5C 995.636,575.699 993.47,579.032 991.5,582.5C 992.015,584.225 992.682,585.892 993.5,587.5C 994.711,586.726 994.711,585.893 993.5,585C 994.449,584.383 995.282,584.549 996,585.5C 996.667,590.167 996.667,594.833 996,599.5C 995.586,599.043 995.086,598.709 994.5,598.5C 992.279,601.791 991.113,605.457 991,609.5C 990.579,606.735 989.079,605.568 986.5,606C 992.027,611.287 992.194,615.453 987,618.5C 986.316,619.784 986.483,620.951 987.5,622C 986.376,622.249 985.376,622.749 984.5,623.5C 986.202,625.743 988.202,627.243 990.5,628C 989.833,626.667 989.167,625.333 988.5,624C 991.866,623.295 994.366,621.461 996,618.5C 996.494,620.134 996.66,621.801 996.5,623.5C 995.325,623.281 994.325,623.614 993.5,624.5C 994.975,627.245 994.309,629.412 991.5,631C 992.623,632.044 993.956,632.71 995.5,633C 994.069,633.465 992.903,634.299 992,635.5C 990.877,639.151 992.044,641.651 995.5,643C 993.246,644.054 992.913,645.554 994.5,647.5C 991.962,647.66 989.962,649.16 988.5,652C 994.107,656.393 993.774,657.227 987.5,654.5C 987.588,658.057 988.921,661.39 991.5,664.5C 989.995,667.131 989.329,666.797 989.5,663.5C 987.857,663.52 986.524,662.853 985.5,661.5C 982.753,663.337 982.919,665.004 986,666.5C 986.743,664.355 987.576,664.189 988.5,666C 987.385,667.235 987.385,668.402 988.5,669.5C 988.333,669.833 988.167,670.167 988,670.5C 985.976,668.116 983.809,667.949 981.5,670C 983.964,673.301 984.464,676.801 983,680.5C 979.757,678.049 976.59,678.049 973.5,680.5C 974.63,684.026 975.797,687.36 977,690.5C 975.67,686.993 973.17,685.327 969.5,685.5C 969.214,687.277 968.547,688.944 967.5,690.5C 967.833,691.167 968.167,691.833 968.5,692.5C 969.386,691.675 969.719,690.675 969.5,689.5C 970.5,689.5 971.5,689.5 972.5,689.5C 972.66,691.199 972.494,692.866 972,694.5C 970.657,698.361 969.157,698.361 967.5,694.5C 965.517,695.982 963.684,697.649 962,699.5C 960.916,702.659 961.75,704.992 964.5,706.5C 952.669,717.924 939.003,726.59 923.5,732.5C 903.731,724.719 887.064,712.719 873.5,696.5C 876.833,695.833 880.167,695.167 883.5,694.5C 883.883,689.742 885.883,688.742 889.5,691.5C 890.262,690.372 890.929,689.205 891.5,688C 894.648,686.62 896.148,684.12 896,680.5C 898.456,682.321 901.289,682.988 904.5,682.5C 904.281,681.325 904.614,680.325 905.5,679.5C 905.533,680.989 906.033,682.322 907,683.5C 907.349,679.418 909.016,676.085 912,673.5C 913.816,674.329 915.649,675.163 917.5,676C 917.167,676.333 916.833,676.667 916.5,677C 919.489,677.33 922.322,678.164 925,679.5C 926.81,677.933 927.977,675.933 928.5,673.5C 925.371,671.532 923.538,668.866 923,665.5C 926.279,661.377 929.946,657.711 934,654.5C 935.337,656.004 937.004,657.004 939,657.5C 940,656.167 941,656.167 942,657.5C 942.576,655.623 942.409,653.789 941.5,652C 941.759,650.739 942.426,649.739 943.5,649C 942.167,648.333 940.833,647.667 939.5,647C 941.667,646.167 943.167,644.667 944,642.5C 944.368,643.91 945.201,644.91 946.5,645.5C 949.971,643.226 949.971,641.393 946.5,640C 947.667,639.5 948.5,638.667 949,637.5C 950.698,639.274 952.531,640.941 954.5,642.5C 958.812,640.528 959.645,637.528 957,633.5C 956.578,631.574 955.411,630.574 953.5,630.5C 958.282,625.106 962.949,619.606 967.5,614C 964.978,608.765 960.978,606.098 955.5,606C 941.321,621.012 926.988,635.845 912.5,650.5C 907.709,645.208 902.709,640.041 897.5,635C 895.783,633.441 893.783,632.608 891.5,632.5C 893.017,631.265 894.684,631.265 896.5,632.5C 899.104,630.793 899.77,628.626 898.5,626C 899.772,624.693 900.772,623.193 901.5,621.5C 902.736,620.754 904.07,620.421 905.5,620.5C 906.268,621.263 906.768,622.263 907,623.5C 907.494,621.866 907.66,620.199 907.5,618.5C 911.776,617.516 916.109,616.683 920.5,616C 919.663,614.989 919.33,613.822 919.5,612.5C 914.461,612.549 914.295,611.882 919,610.5C 919.804,611.804 920.971,612.471 922.5,612.5C 924.135,611.954 925.801,611.62 927.5,611.5C 926.648,606.928 928.314,603.262 932.5,600.5C 931.96,599.252 931.293,598.085 930.5,597C 933.026,597.632 935.526,597.465 938,596.5C 940.547,599.752 943.88,601.752 948,602.5C 951.469,600.895 951.302,599.895 947.5,599.5C 947.5,598.5 947.5,597.5 947.5,596.5C 949.199,596.34 950.866,596.506 952.5,597C 954.632,597.918 955.299,599.251 954.5,601C 956.433,601.251 958.266,601.751 960,602.5C 962.364,599.253 963.864,595.587 964.5,591.5C 968.182,591.555 971.515,592.555 974.5,594.5C 976.257,599.088 977.757,603.754 979,608.5C 980.707,609.138 982.54,609.138 984.5,608.5C 984.5,606.167 984.5,603.833 984.5,601.5C 983.022,601.238 981.689,601.571 980.5,602.5C 983.215,604.551 983.048,606.217 980,607.5C 979.667,604.5 979.333,601.5 979,598.5C 978.107,599.711 977.274,599.711 976.5,598.5C 977.833,597.5 977.833,596.5 976.5,595.5C 976.667,595.167 976.833,594.833 977,594.5C 978.804,596.981 980.304,596.981 981.5,594.5C 983.167,594.5 984.833,594.5 986.5,594.5C 986.5,591.167 988.167,589.5 991.5,589.5C 991.702,587.011 991.202,584.677 990,582.5C 989.667,583.167 989.333,583.833 989,584.5C 988.751,583.376 988.251,582.376 987.5,581.5C 986.289,582.274 986.289,583.107 987.5,584C 986.167,584.333 984.833,584.667 983.5,585C 984.552,586.716 983.886,587.716 981.5,588C 981.833,588.333 982.167,588.667 982.5,589C 981.365,589.749 980.365,589.583 979.5,588.5C 980.202,584.03 979.368,583.697 977,587.5C 976.81,585.322 976.643,583.155 976.5,581C 976.759,579.739 977.426,578.739 978.5,578C 985.312,576.555 991.645,574.055 997.5,570.5 Z"/></g>
<g><path style="opacity:1" fill="#0a2b20" d="M 280.5,724.5 C 298.351,724.509 304.185,732.842 298,749.5C 293.032,755.115 286.865,756.948 279.5,755C 270.927,750.228 268.094,743.061 271,733.5C 273.406,729.592 276.572,726.592 280.5,724.5 Z"/></g>
<g><path style="opacity:1" fill="#072b1f" d="M 218.5,727.5 C 225.167,727.5 231.833,727.5 238.5,727.5C 239.878,728.234 241.378,728.901 243,729.5C 243.333,729.167 243.667,728.833 244,728.5C 244.167,774.002 244.667,819.335 245.5,864.5C 237.01,865.657 228.343,865.824 219.5,865C 218.712,861.924 218.212,858.758 218,855.5C 207.504,865.552 195.004,869.386 180.5,867C 165.296,863.487 154.463,854.653 148,840.5C 139.12,817.209 143.286,796.709 160.5,779C 173.88,769.156 188.547,766.823 204.5,772C 208.975,773.402 212.975,775.569 216.5,778.5C 216.56,779.043 216.893,779.376 217.5,779.5C 218.5,762.179 218.833,744.846 218.5,727.5 Z"/></g>
<g><path style="opacity:1" fill="#526963" d="M 218.5,727.5 C 218.833,744.846 218.5,762.179 217.5,779.5C 216.893,779.376 216.56,779.043 216.5,778.5C 217.167,761.5 217.833,744.5 218.5,727.5 Z"/></g>
<g><path style="opacity:1" fill="#3f764d" d="M 1092.5,727.5 C 1101.17,727.5 1109.83,727.5 1118.5,727.5C 1118.67,773.168 1118.5,818.835 1118,864.5C 1109.67,865.833 1101.33,865.833 1093,864.5C 1092.5,818.835 1092.33,773.168 1092.5,727.5 Z"/></g>
<g><path style="opacity:1" fill="#00170a" d="M 238.5,727.5 C 240.833,727.5 243.167,727.5 245.5,727.5C 245.5,773.167 245.5,818.833 245.5,864.5C 244.667,819.335 244.167,774.002 244,728.5C 243.667,728.833 243.333,729.167 243,729.5C 241.378,728.901 239.878,728.234 238.5,727.5 Z"/></g>
<g><path style="opacity:1" fill="#082b20" d="M 517.5,800.5 C 517.822,822.242 517.488,843.909 516.5,865.5C 507.833,865.5 499.167,865.5 490.5,865.5C 490.667,845.497 490.5,825.497 490,805.5C 484.059,793.461 474.893,790.294 462.5,796C 458.48,799.011 455.647,802.844 454,807.5C 453.667,826.5 453.333,845.5 453,864.5C 444.251,865.484 435.418,865.817 426.5,865.5C 426.5,834.167 426.5,802.833 426.5,771.5C 435.173,771.334 443.84,771.5 452.5,772C 453.125,774.8 453.792,777.634 454.5,780.5C 469.11,767.913 485.11,766.08 502.5,775C 511.736,780.968 516.736,789.468 517.5,800.5 Z"/></g>
<g><path style="opacity:1" fill="#3d744b" d="M 959.5,864.5 C 951.5,864.5 943.5,864.5 935.5,864.5C 935.5,833.5 935.5,802.5 935.5,771.5C 943.5,771.5 951.5,771.5 959.5,771.5C 959.335,774.518 959.502,777.518 960,780.5C 968.303,770.621 978.803,767.121 991.5,770C 999.663,772.16 1006.16,776.66 1011,783.5C 1020.31,771.609 1032.47,767.109 1047.5,770C 1062.08,773.951 1070.58,783.451 1073,798.5C 1073.67,820.5 1073.67,842.5 1073,864.5C 1064.92,865.482 1056.75,865.816 1048.5,865.5C 1048.67,845.497 1048.5,825.497 1048,805.5C 1043.42,793.312 1035.25,790.145 1023.5,796C 1020.57,798.264 1018.4,801.098 1017,804.5C 1016.67,824.5 1016.33,844.5 1016,864.5C 1007.92,865.482 999.752,865.816 991.5,865.5C 991.667,845.497 991.5,825.497 991,805.5C 989.182,797.183 984.016,793.183 975.5,793.5C 967.609,793.882 962.443,797.882 960,805.5C 959.5,825.164 959.333,844.831 959.5,864.5 Z"/></g>
<g><path style="opacity:1" fill="#082b20" d="M 688.5,769.5 C 708.117,767.313 724.617,773.313 738,787.5C 747.126,800.064 750.126,814.064 747,829.5C 741.413,851.085 727.58,863.585 705.5,867C 678.128,869.573 659.628,858.073 650,832.5C 644.625,809.275 651.458,790.775 670.5,777C 676.266,773.607 682.266,771.107 688.5,769.5 Z"/></g>
<g><path style="opacity:1" fill="#0b2d22" d="M 272.5,771.5 C 281.5,771.5 290.5,771.5 299.5,771.5C 299.667,805.835 299.5,840.168 299,874.5C 296.519,890.668 287.352,900.501 271.5,904C 262.739,905.21 254.239,904.377 246,901.5C 245.333,899.167 245.333,896.833 246,894.5C 247.48,889.898 248.646,885.231 249.5,880.5C 254.149,881.295 258.816,881.461 263.5,881C 267.77,879.73 270.27,876.896 271,872.5C 271.174,838.762 271.674,805.095 272.5,771.5 Z"/></g>
<g><path style="opacity:1" fill="#072a1f" d="M 604.5,779.5 C 604.56,780.043 604.893,780.376 605.5,780.5C 606.48,777.914 606.813,775.247 606.5,772.5C 614.65,771.507 622.983,771.174 631.5,771.5C 631.667,804.168 631.5,836.835 631,869.5C 626.5,887.333 615.333,898.5 597.5,903C 578.176,907.404 560.176,904.404 543.5,894C 541.007,892.434 539.007,890.434 537.5,888C 541.624,881.542 546.79,876.042 553,871.5C 566.243,883.622 581.076,885.789 597.5,878C 602.712,873.742 605.379,868.242 605.5,861.5C 606.803,858.645 606.803,855.645 605.5,852.5C 604.893,852.624 604.56,852.957 604.5,853.5C 591.666,863.856 577.333,866.356 561.5,861C 545.075,853.397 535.742,840.564 533.5,822.5C 533.5,821.5 533.5,820.5 533.5,819.5C 534.79,818.942 535.623,817.942 536,816.5C 536.333,816.833 536.667,817.167 537,817.5C 537.492,816.451 537.326,815.451 536.5,814.5C 537.955,813.255 539.289,813.422 540.5,815C 539.745,817.133 538.412,818.8 536.5,820C 540.041,821.44 543.708,822.274 547.5,822.5C 547.677,820.019 546.677,818.186 544.5,817C 545.833,815.667 545.833,814.333 544.5,813C 545.833,812.667 547.167,812.333 548.5,812C 547.137,809.871 547.471,809.371 549.5,810.5C 550.874,809.289 552.374,808.289 554,807.5C 555.261,807.759 556.261,808.426 557,809.5C 557.333,809.167 557.667,808.833 558,808.5C 558.198,810.382 558.698,812.048 559.5,813.5C 560.347,834.526 571.014,843.026 591.5,839C 601.864,835.111 606.864,827.611 606.5,816.5C 605.125,800.133 596.125,792.133 579.5,792.5C 578.048,791.698 576.382,791.198 574.5,791C 574.833,790.667 575.167,790.333 575.5,790C 573.133,787.787 570.467,787.121 567.5,788C 568.833,789.667 570.167,791.333 571.5,793C 569.305,793.712 567.638,793.045 566.5,791C 566.618,789.101 566.118,787.267 565,785.5C 564.751,786.624 564.251,787.624 563.5,788.5C 561.5,787.5 559.5,786.5 557.5,785.5C 556.914,785.709 556.414,786.043 556,786.5C 555.064,782.757 554.231,779.424 553.5,776.5C 566.462,768.607 580.129,767.44 594.5,773C 598.374,774.431 601.707,776.597 604.5,779.5 Z"/></g>
<g><path style="opacity:1" fill="#07251d" d="M 553.5,776.5 C 554.231,779.424 555.064,782.757 556,786.5C 556.414,786.043 556.914,785.709 557.5,785.5C 559.5,786.5 561.5,787.5 563.5,788.5C 564.251,787.624 564.751,786.624 565,785.5C 566.118,787.267 566.618,789.101 566.5,791C 567.638,793.045 569.305,793.712 571.5,793C 570.167,791.333 568.833,789.667 567.5,788C 570.467,787.121 573.133,787.787 575.5,790C 575.167,790.333 574.833,790.667 574.5,791C 576.382,791.198 578.048,791.698 579.5,792.5C 568.087,794.914 561.42,801.914 559.5,813.5C 558.698,812.048 558.198,810.382 558,808.5C 557.667,808.833 557.333,809.167 557,809.5C 556.261,808.426 555.261,807.759 554,807.5C 552.374,808.289 550.874,809.289 549.5,810.5C 547.471,809.371 547.137,809.871 548.5,812C 547.167,812.333 545.833,812.667 544.5,813C 545.833,814.333 545.833,815.667 544.5,817C 546.677,818.186 547.677,820.019 547.5,822.5C 543.708,822.274 540.041,821.44 536.5,820C 538.412,818.8 539.745,817.133 540.5,815C 539.289,813.422 537.955,813.255 536.5,814.5C 537.326,815.451 537.492,816.451 537,817.5C 536.667,817.167 536.333,816.833 536,816.5C 535.623,817.942 534.79,818.942 533.5,819.5C 533.372,815.119 533.705,810.785 534.5,806.5C 535.451,807.919 535.784,809.585 535.5,811.5C 539.497,812.332 542.164,810.832 543.5,807C 542.833,806.667 542.167,806.333 541.5,806C 543.664,805.63 545.664,804.796 547.5,803.5C 549.951,798.995 551.451,794.329 552,789.5C 550.806,790.43 549.473,791.097 548,791.5C 545.946,790.921 543.946,790.588 542,790.5C 541.085,791.328 540.419,792.328 540,793.5C 539.536,792.906 539.369,792.239 539.5,791.5C 542.783,785.217 547.45,780.217 553.5,776.5 Z"/></g>
<g><path style="opacity:1" fill="#758782" d="M 606.5,772.5 C 606.813,775.247 606.48,777.914 605.5,780.5C 604.893,780.376 604.56,780.043 604.5,779.5C 605.167,777.167 605.833,774.833 606.5,772.5 Z"/></g>
<g><path style="opacity:1" fill="#072d21" d="M 534.5,806.5 C 534.5,806.167 534.5,805.833 534.5,805.5C 535.263,800.41 536.93,795.743 539.5,791.5C 539.369,792.239 539.536,792.906 540,793.5C 540.419,792.328 541.085,791.328 542,790.5C 543.946,790.588 545.946,790.921 548,791.5C 549.473,791.097 550.806,790.43 552,789.5C 551.451,794.329 549.951,798.995 547.5,803.5C 545.664,804.796 543.664,805.63 541.5,806C 542.167,806.333 542.833,806.667 543.5,807C 542.164,810.832 539.497,812.332 535.5,811.5C 535.784,809.585 535.451,807.919 534.5,806.5 Z"/></g>
<g><path style="opacity:1" fill="#f6f7f6" d="M 186.5,793.5 C 200.186,790.763 210.353,795.429 217,807.5C 220.849,819.584 218.349,830.084 209.5,839C 191.932,848.146 179.432,843.646 172,825.5C 169.052,811.075 173.886,800.408 186.5,793.5 Z"/></g>
<g><path style="opacity:1" fill="#f5f6f6" d="M 579.5,792.5 C 596.125,792.133 605.125,800.133 606.5,816.5C 606.864,827.611 601.864,835.111 591.5,839C 571.014,843.026 560.347,834.526 559.5,813.5C 561.42,801.914 568.087,794.914 579.5,792.5 Z"/></g>
<g><path style="opacity:1" fill="#f5f6f6" d="M 690.5,793.5 C 713.842,791.675 724.009,802.341 721,825.5C 716.174,839.643 706.34,845.476 691.5,843C 677.01,835.843 671.843,824.343 676,808.5C 679.021,801.647 683.855,796.647 690.5,793.5 Z"/></g>
<g><path style="opacity:1" fill="#3e754b" d="M 863.5,769.5 C 891.858,767.399 910.358,779.733 919,806.5C 922.08,826.258 916.58,843.092 902.5,857C 882.136,870.996 861.802,870.996 841.5,857C 820.709,835.766 818.209,812.599 834,787.5C 842,778.261 851.834,772.261 863.5,769.5 Z"/></g>
<g><path style="opacity:1" fill="#f7f8f7" d="M 864.5,793.5 C 878.451,791.39 888.284,796.723 894,809.5C 897.265,823.733 892.765,834.567 880.5,842C 865.136,846.069 854.97,840.569 850,825.5C 847.012,811.151 851.845,800.484 864.5,793.5 Z"/></g>
<g><path style="opacity:1" fill="#092b21" d="M 764.5,804.5 C 778.504,804.333 792.504,804.5 806.5,805C 807.645,811.752 807.811,818.586 807,825.5C 792.908,826.656 778.742,826.823 764.5,826C 763.183,818.834 763.183,811.667 764.5,804.5 Z"/></g>
<g><path style="opacity:1" fill="#9da8a4" d="M 534.5,805.5 C 534.5,805.833 534.5,806.167 534.5,806.5C 533.705,810.785 533.372,815.119 533.5,819.5C 533.5,820.5 533.5,821.5 533.5,822.5C 532.837,820.359 532.503,818.025 532.5,815.5C 532.315,811.859 532.981,808.526 534.5,805.5 Z"/></g>
<g><path style="opacity:1" fill="#082a20" d="M 350.5,769.5 C 364.886,767.858 378.219,770.692 390.5,778C 397.124,783.75 401.291,790.917 403,799.5C 403.414,821.189 403.748,842.856 404,864.5C 395.912,865.648 387.746,865.815 379.5,865C 378.712,861.924 378.212,858.758 378,855.5C 367.603,865.855 355.103,869.688 340.5,867C 322.795,861.767 314.961,849.934 317,831.5C 321.08,819.758 329.246,812.591 341.5,810C 353.119,808.639 364.786,808.139 376.5,808.5C 377.669,801.337 375.002,796.171 368.5,793C 355.753,788.794 344.92,791.628 336,801.5C 331.565,796.309 326.899,791.309 322,786.5C 321.333,785.833 321.333,785.167 322,784.5C 330.24,776.965 339.74,771.965 350.5,769.5 Z"/></g>
<g><path style="opacity:1" fill="#f3f4f4" d="M 355.5,825.5 C 362.5,825.5 369.5,825.5 376.5,825.5C 376.5,828.167 376.5,830.833 376.5,833.5C 374.682,841.483 369.682,846.316 361.5,848C 348.615,850.439 342.782,845.272 344,832.5C 346.685,828.322 350.518,825.988 355.5,825.5 Z"/></g>
<g><path style="opacity:1" fill="#95a29f" d="M 355.5,825.5 C 362.648,824.508 369.981,824.175 377.5,824.5C 377.81,827.713 377.477,830.713 376.5,833.5C 376.5,830.833 376.5,828.167 376.5,825.5C 369.5,825.5 362.5,825.5 355.5,825.5 Z"/></g>
<g><path style="opacity:1" fill="#bdc5c3" d="M 517.5,800.5 C 518.167,811.161 518.5,821.995 518.5,833C 518.499,844.188 517.832,855.021 516.5,865.5C 517.488,843.909 517.822,822.242 517.5,800.5 Z"/></g>
<g><path style="opacity:1" fill="#588967" d="M 935.5,771.5 C 935.5,802.5 935.5,833.5 935.5,864.5C 943.5,864.5 951.5,864.5 959.5,864.5C 951.35,865.493 943.017,865.826 934.5,865.5C 934.168,833.996 934.502,802.662 935.5,771.5 Z"/></g>
<g><path style="opacity:1" fill="#687a70" d="M 604.5,853.5 C 604.56,852.957 604.893,852.624 605.5,852.5C 606.803,855.645 606.803,858.645 605.5,861.5C 605.806,858.615 605.473,855.948 604.5,853.5 Z"/></g>
<g><path style="opacity:1" fill="#061f18" d="M 297.5,772.5 C 298.498,805.662 298.832,838.996 298.5,872.5C 297.5,872.5 296.5,872.5 295.5,872.5C 295.216,869.368 294.383,866.368 293,863.5C 292.5,864 292,864.5 291.5,865C 292.435,867.381 292.768,869.881 292.5,872.5C 291.127,872.657 289.793,872.49 288.5,872C 287.692,869.912 286.692,867.912 285.5,866C 287.53,864.069 289.863,862.569 292.5,861.5C 293.736,862.246 295.07,862.579 296.5,862.5C 297.514,838.515 297.847,808.515 297.5,772.5 Z"/></g>
<g><path style="opacity:1" fill="#356947" d="M 633.5,921.5 C 642.161,920.329 645.994,923.996 645,932.5C 639.667,940.5 634.333,940.5 629,932.5C 628.333,930.5 628.333,928.5 629,926.5C 630.707,924.963 632.207,923.296 633.5,921.5 Z"/></g>
<g><path style="opacity:1" fill="#6e917e" d="M 987.5,928.5 C 881.165,928.454 774.832,928.787 668.5,929.5C 736.662,928.099 804.995,927.433 873.5,927.5C 911.668,927.5 949.668,927.833 987.5,928.5 Z"/></g>
<g><path style="opacity:1" fill="#0e3f26" d="M 987.5,928.5 C 996.833,928.5 1006.17,928.5 1015.5,928.5C 1042.5,929.167 1069.5,929.833 1096.5,930.5C 953.833,930.5 811.167,930.5 668.5,930.5C 668.5,930.167 668.5,929.833 668.5,929.5C 774.832,928.787 881.165,928.454 987.5,928.5 Z"/></g>
<g><path style="opacity:1" fill="#849c91" d="M 1015.5,928.5 C 1042.83,928.5 1070.17,928.5 1097.5,928.5C 1103.99,929.328 1110.65,929.828 1117.5,930C 1110.51,930.5 1103.51,930.666 1096.5,930.5C 1069.5,929.833 1042.5,929.167 1015.5,928.5 Z"/></g>
<g><path style="opacity:1" fill="#517061" d="M 279.5,928.5 C 248.5,929.167 217.5,929.833 186.5,930.5C 172.656,930.829 158.99,930.496 145.5,929.5C 189.997,928.501 234.664,928.168 279.5,928.5 Z"/></g>
<g><path style="opacity:1" fill="#1c4830" d="M 279.5,928.5 C 388.668,928.167 497.668,928.501 606.5,929.5C 552.833,930.167 499.167,930.833 445.5,931.5C 385.833,931.5 326.167,931.5 266.5,931.5C 240.005,930.502 213.339,930.169 186.5,930.5C 217.5,929.833 248.5,929.167 279.5,928.5 Z"/></g>
<g><path style="opacity:1" fill="#acbcb6" d="M 145.5,929.5 C 158.99,930.496 172.656,930.829 186.5,930.5C 213.339,930.169 240.005,930.502 266.5,931.5C 225.828,931.833 185.161,931.5 144.5,930.5C 144.624,929.893 144.957,929.56 145.5,929.5 Z"/></g>
<g><path style="opacity:1" fill="#8faa9b" d="M 606.5,929.5 C 607.043,929.56 607.376,929.893 607.5,930.5C 553.504,931.5 499.504,931.833 445.5,931.5C 499.167,930.833 552.833,930.167 606.5,929.5 Z"/></g>
<g><path style="opacity:1" fill="#95aaa0" d="M 1097.5,928.5 C 1104.5,928.5 1111.5,928.5 1118.5,928.5C 1118.5,929.5 1118.5,930.5 1118.5,931.5C 968.332,931.833 818.332,931.5 668.5,930.5C 811.167,930.5 953.833,930.5 1096.5,930.5C 1103.51,930.666 1110.51,930.5 1117.5,930C 1110.65,929.828 1103.99,929.328 1097.5,928.5 Z"/></g>
<g><path style="opacity:1" fill="#a9abae" d="M 315.5,988.5 C 315.5,981.833 315.5,975.167 315.5,968.5C 317.833,968.5 320.167,968.5 322.5,968.5C 322.5,967.167 322.5,965.833 322.5,964.5C 316.167,964.5 309.833,964.5 303.5,964.5C 303.5,965.833 303.5,967.167 303.5,968.5C 302.549,967.081 302.216,965.415 302.5,963.5C 309.5,963.5 316.5,963.5 323.5,963.5C 323.5,965.5 323.5,967.5 323.5,969.5C 321.167,969.5 318.833,969.5 316.5,969.5C 316.823,976.022 316.49,982.355 315.5,988.5 Z"/></g>
<g><path style="opacity:1" fill="#9fa2a6" d="M 544.5,964.5 C 550.979,963.509 557.646,963.176 564.5,963.5C 564.784,965.415 564.451,967.081 563.5,968.5C 563.5,967.167 563.5,965.833 563.5,964.5C 557.167,964.5 550.833,964.5 544.5,964.5 Z"/></g>
<g><path style="opacity:1" fill="#41474d" d="M 759.5,964.5 C 765.167,964.5 770.833,964.5 776.5,964.5C 776.5,965.833 776.5,967.167 776.5,968.5C 772.5,968.5 768.5,968.5 764.5,968.5C 764.5,970.5 764.5,972.5 764.5,974.5C 768.167,974.5 771.833,974.5 775.5,974.5C 775.5,975.833 775.5,977.167 775.5,978.5C 771.833,978.5 768.167,978.5 764.5,978.5C 764.5,980.5 764.5,982.5 764.5,984.5C 768.833,984.5 773.167,984.5 777.5,984.5C 777.5,985.833 777.5,987.167 777.5,988.5C 771.5,988.5 765.5,988.5 759.5,988.5C 759.5,980.5 759.5,972.5 759.5,964.5 Z"/></g>
<g><path style="opacity:1" fill="#41484e" d="M 182.5,964.5 C 188.29,964.096 193.956,964.596 199.5,966C 202.343,969.619 202.01,972.952 198.5,976C 202.629,978.631 203.462,982.131 201,986.5C 200.25,987.126 199.416,987.626 198.5,988C 193.177,988.499 187.844,988.666 182.5,988.5C 182.5,980.5 182.5,972.5 182.5,964.5 Z"/></g>
<g><path style="opacity:1" fill="#3b4248" d="M 259.5,964.5 C 259.5,965.833 259.5,967.167 259.5,968.5C 255.5,968.5 251.5,968.5 247.5,968.5C 246.539,970.265 246.205,972.265 246.5,974.5C 250.167,974.5 253.833,974.5 257.5,974.5C 257.5,975.833 257.5,977.167 257.5,978.5C 253.833,978.5 250.167,978.5 246.5,978.5C 246.5,980.5 246.5,982.5 246.5,984.5C 250.833,984.5 255.167,984.5 259.5,984.5C 259.5,985.833 259.5,987.167 259.5,988.5C 253.833,988.5 248.167,988.5 242.5,988.5C 242.5,980.5 242.5,972.5 242.5,964.5C 248.167,964.5 253.833,964.5 259.5,964.5 Z"/></g>
<g><path style="opacity:1" fill="#8e9294" d="M 474.5,964.5 C 468.833,964.5 463.167,964.5 457.5,964.5C 457.5,972.5 457.5,980.5 457.5,988.5C 463.167,988.5 468.833,988.5 474.5,988.5C 468.69,989.49 462.69,989.823 456.5,989.5C 456.5,980.833 456.5,972.167 456.5,963.5C 462.69,963.177 468.69,963.51 474.5,964.5 Z"/></g>
<g><path style="opacity:1" fill="#3c4248" d="M 474.5,964.5 C 474.5,965.833 474.5,967.167 474.5,968.5C 470.5,968.5 466.5,968.5 462.5,968.5C 461.539,970.265 461.205,972.265 461.5,974.5C 465.167,974.5 468.833,974.5 472.5,974.5C 472.5,975.833 472.5,977.167 472.5,978.5C 468.833,978.5 465.167,978.5 461.5,978.5C 461.5,980.5 461.5,982.5 461.5,984.5C 465.833,984.5 470.167,984.5 474.5,984.5C 474.5,985.833 474.5,987.167 474.5,988.5C 468.833,988.5 463.167,988.5 457.5,988.5C 457.5,980.5 457.5,972.5 457.5,964.5C 463.167,964.5 468.833,964.5 474.5,964.5 Z"/></g>
<g><path style="opacity:1" fill="#9ea1a4" d="M 259.5,964.5 C 253.833,964.5 248.167,964.5 242.5,964.5C 242.5,972.5 242.5,980.5 242.5,988.5C 248.167,988.5 253.833,988.5 259.5,988.5C 253.69,989.49 247.69,989.823 241.5,989.5C 241.5,980.833 241.5,972.167 241.5,963.5C 247.69,963.177 253.69,963.51 259.5,964.5 Z"/></g>
<g><path style="opacity:1" fill="#3f464c" d="M 941.5,964.5 C 947.262,964.149 952.928,964.649 958.5,966C 963.814,970.837 964.98,976.67 962,983.5C 960.833,984.667 959.667,985.833 958.5,987C 952.928,988.351 947.262,988.851 941.5,988.5C 941.5,980.5 941.5,972.5 941.5,964.5 Z"/></g>
<g><path style="opacity:1" fill="#c2c5c7" d="M 759.5,964.5 C 765.31,963.51 771.31,963.177 777.5,963.5C 777.5,965.5 777.5,967.5 777.5,969.5C 773.5,969.5 769.5,969.5 765.5,969.5C 765.5,970.833 765.5,972.167 765.5,973.5C 769.042,973.187 772.375,973.521 775.5,974.5C 771.833,974.5 768.167,974.5 764.5,974.5C 764.5,972.5 764.5,970.5 764.5,968.5C 768.5,968.5 772.5,968.5 776.5,968.5C 776.5,967.167 776.5,965.833 776.5,964.5C 770.833,964.5 765.167,964.5 759.5,964.5 Z"/></g>
<g><path style="opacity:1" fill="#464d53" d="M 1101.5,963.5 C 1113.68,962.848 1119.18,968.514 1118,980.5C 1113.31,989.284 1106.48,991.45 1097.5,987C 1089.87,977.55 1091.21,969.717 1101.5,963.5 Z"/></g>
<g><path style="opacity:1" fill="#f0f0f1" d="M 1101.5,968.5 C 1108.01,967.244 1112.01,969.744 1113.5,976C 1112.01,984.571 1107.51,986.738 1100,982.5C 1097.62,977.406 1098.12,972.739 1101.5,968.5 Z"/></g>
<g><path style="opacity:1" fill="#474e54" d="M 597.5,963.5 C 611.51,962.667 617.01,969 614,982.5C 608.879,989.712 602.379,991.212 594.5,987C 587.134,978.062 588.134,970.229 597.5,963.5 Z"/></g>
<g><path style="opacity:1" fill="#40474d" d="M 900.5,980.5 C 899.527,982.948 899.194,985.615 899.5,988.5C 898.167,988.5 896.833,988.5 895.5,988.5C 895.5,980.5 895.5,972.5 895.5,964.5C 900.511,964.334 905.511,964.501 910.5,965C 915.747,969.962 915.747,974.962 910.5,980C 911.615,982.616 912.949,985.116 914.5,987.5C 912.926,988.631 911.259,988.798 909.5,988C 907.968,985.966 906.635,983.799 905.5,981.5C 903.955,980.548 902.288,980.215 900.5,980.5 Z"/></g>
<g><path style="opacity:1" fill="#e8e9e9" d="M 900.5,968.5 C 902.857,968.337 905.19,968.503 907.5,969C 910.167,971.333 910.167,973.667 907.5,976C 905.19,976.497 902.857,976.663 900.5,976.5C 900.5,973.833 900.5,971.167 900.5,968.5 Z"/></g>
<g><path style="opacity:1" fill="#e2e4e4" d="M 187.5,968.5 C 190.187,968.336 192.854,968.503 195.5,969C 196.833,970.667 196.833,972.333 195.5,974C 192.854,974.497 190.187,974.664 187.5,974.5C 187.5,972.5 187.5,970.5 187.5,968.5 Z"/></g>
<g><path style="opacity:1" fill="#9a9d9f" d="M 437.5,964.5 C 433.167,964.5 428.833,964.5 424.5,964.5C 424.5,972.5 424.5,980.5 424.5,988.5C 423.507,980.35 423.174,972.017 423.5,963.5C 428.363,963.181 433.03,963.514 437.5,964.5 Z"/></g>
<g><path style="opacity:1" fill="#3e454b" d="M 690.5,984.5 C 690.5,985.833 690.5,987.167 690.5,988.5C 685.167,988.5 679.833,988.5 674.5,988.5C 674.5,980.167 674.5,971.833 674.5,963.5C 676.167,963.5 677.833,963.5 679.5,963.5C 679.5,970.5 679.5,977.5 679.5,984.5C 683.167,984.5 686.833,984.5 690.5,984.5 Z"/></g>
<g><path style="opacity:1" fill="#c8c9cb" d="M 954.5,969.5 C 952.167,969.5 949.833,969.5 947.5,969.5C 947.5,974.167 947.5,978.833 947.5,983.5C 949.833,983.5 952.167,983.5 954.5,983.5C 952.052,984.473 949.385,984.806 946.5,984.5C 946.5,979.167 946.5,973.833 946.5,968.5C 949.385,968.194 952.052,968.527 954.5,969.5 Z"/></g>
<g><path style="opacity:1" fill="#454d53" d="M 278.5,963.5 C 284.319,962.307 288.986,963.974 292.5,968.5C 292.113,969.72 291.28,970.387 290,970.5C 280.217,965.979 275.551,968.979 276,979.5C 278.072,984.143 281.572,985.643 286.5,984C 289.538,980.611 291.371,981.111 292,985.5C 283.002,992.086 276.002,990.419 271,980.5C 269.16,972.851 271.66,967.184 278.5,963.5 Z"/></g>
<g><path style="opacity:1" fill="#eeeeef" d="M 598.5,968.5 C 605.244,967.198 609.244,969.864 610.5,976.5C 609.243,983.299 605.243,985.799 598.5,984C 593.222,978.8 593.222,973.634 598.5,968.5 Z"/></g>
<g><path style="opacity:1" fill="#9a9d9d" d="M 800.5,964.5 C 796.5,964.5 792.5,964.5 788.5,964.5C 788.5,972.5 788.5,980.5 788.5,988.5C 787.507,980.35 787.174,972.017 787.5,963.5C 792.032,963.182 796.366,963.515 800.5,964.5 Z"/></g>
<g><path style="opacity:1" fill="#474d53" d="M 867.5,963.5 C 881.546,962.7 887.046,969.034 884,982.5C 880.373,988.158 875.207,990.325 868.5,989C 861.306,985.78 858.473,980.28 860,972.5C 861.642,968.7 864.142,965.7 867.5,963.5 Z"/></g>
<g><path style="opacity:1" fill="#edeeef" d="M 868.5,968.5 C 876.685,967.196 880.518,970.53 880,978.5C 877.983,983.924 874.15,985.758 868.5,984C 863.221,978.836 863.221,973.669 868.5,968.5 Z"/></g>
<g><path style="opacity:1" fill="#40474d" d="M 315.5,988.5 C 313.833,988.5 312.167,988.5 310.5,988.5C 310.5,981.833 310.5,975.167 310.5,968.5C 308.167,968.5 305.833,968.5 303.5,968.5C 303.5,967.167 303.5,965.833 303.5,964.5C 309.833,964.5 316.167,964.5 322.5,964.5C 322.5,965.833 322.5,967.167 322.5,968.5C 320.167,968.5 317.833,968.5 315.5,968.5C 315.5,975.167 315.5,981.833 315.5,988.5 Z"/></g>
<g><path style="opacity:1" fill="#f3f4f4" d="M 954.5,969.5 C 958.314,972.152 959.481,975.819 958,980.5C 956.961,981.71 955.794,982.71 954.5,983.5C 952.167,983.5 949.833,983.5 947.5,983.5C 947.5,978.833 947.5,974.167 947.5,969.5C 949.833,969.5 952.167,969.5 954.5,969.5 Z"/></g>
<g><path style="opacity:1" fill="#b0b4b5" d="M 247.5,968.5 C 247.5,970.167 247.5,971.833 247.5,973.5C 251.042,973.187 254.375,973.521 257.5,974.5C 253.833,974.5 250.167,974.5 246.5,974.5C 246.205,972.265 246.539,970.265 247.5,968.5 Z"/></g>
<g><path style="opacity:1" fill="#434a50" d="M 396.5,963.5 C 411.438,963.597 416.271,970.597 411,984.5C 402.482,991.936 395.149,990.936 389,981.5C 386.856,973.465 389.356,967.465 396.5,963.5 Z"/></g>
<g><path style="opacity:1" fill="#f2f2f3" d="M 397.5,968.5 C 405.709,967.872 409.209,971.539 408,979.5C 405.928,984.143 402.428,985.643 397.5,984C 392.198,978.881 392.198,973.714 397.5,968.5 Z"/></g>
<g><path style="opacity:1" fill="#b4b9ba" d="M 462.5,968.5 C 462.5,970.167 462.5,971.833 462.5,973.5C 466.042,973.187 469.375,973.521 472.5,974.5C 468.833,974.5 465.167,974.5 461.5,974.5C 461.205,972.265 461.539,970.265 462.5,968.5 Z"/></g>
<g><path style="opacity:1" fill="#424a50" d="M 437.5,964.5 C 446.714,968.683 448.88,975.349 444,984.5C 442.421,986.041 440.587,987.208 438.5,988C 433.845,988.499 429.179,988.666 424.5,988.5C 424.5,980.5 424.5,972.5 424.5,964.5C 428.833,964.5 433.167,964.5 437.5,964.5 Z"/></g>
<g><path style="opacity:1" fill="#e8e9ea" d="M 428.5,968.5 C 435.68,966.91 440.014,969.577 441.5,976.5C 440.014,983.423 435.68,986.09 428.5,984.5C 428.5,979.167 428.5,973.833 428.5,968.5 Z"/></g>
<g><path style="opacity:1" fill="#838487" d="M 574.5,964.5 C 575.919,963.549 577.585,963.216 579.5,963.5C 579.5,972.167 579.5,980.833 579.5,989.5C 577.585,989.784 575.919,989.451 574.5,988.5C 575.833,988.5 577.167,988.5 578.5,988.5C 578.5,980.5 578.5,972.5 578.5,964.5C 577.167,964.5 575.833,964.5 574.5,964.5 Z"/></g>
<g><path style="opacity:1" fill="#40474d" d="M 849.5,974.5 C 849.5,975.833 849.5,977.167 849.5,978.5C 845.958,978.187 842.625,978.521 839.5,979.5C 838.523,982.287 838.19,985.287 838.5,988.5C 837.167,988.5 835.833,988.5 834.5,988.5C 834.5,980.5 834.5,972.5 834.5,964.5C 840.167,964.5 845.833,964.5 851.5,964.5C 851.5,965.833 851.5,967.167 851.5,968.5C 847.5,968.5 843.5,968.5 839.5,968.5C 839.5,970.5 839.5,972.5 839.5,974.5C 842.833,974.5 846.167,974.5 849.5,974.5 Z"/></g>
<g><path style="opacity:1" fill="#40474d" d="M 1035.5,974.5 C 1035.44,973.957 1035.11,973.624 1034.5,973.5C 1033.51,978.456 1033.17,983.456 1033.5,988.5C 1032.17,988.5 1030.83,988.5 1029.5,988.5C 1029.5,980.5 1029.5,972.5 1029.5,964.5C 1031.29,964.215 1032.95,964.548 1034.5,965.5C 1038.19,970.025 1041.69,974.692 1045,979.5C 1045.5,974.511 1045.67,969.511 1045.5,964.5C 1047.17,964.5 1048.83,964.5 1050.5,964.5C 1050.5,972.5 1050.5,980.5 1050.5,988.5C 1048.8,988.66 1047.13,988.494 1045.5,988C 1042.33,983.341 1039,978.841 1035.5,974.5 Z"/></g>
<g><path style="opacity:1" fill="#8a8d92" d="M 358.5,974.5 C 357.513,979.305 357.179,984.305 357.5,989.5C 355.585,989.784 353.919,989.451 352.5,988.5C 353.833,988.5 355.167,988.5 356.5,988.5C 356.173,983.456 356.506,978.456 357.5,973.5C 358.107,973.624 358.44,973.957 358.5,974.5 Z"/></g>
<g><path style="opacity:1" fill="#434a51" d="M 485.5,964.5 C 490.511,964.334 495.511,964.501 500.5,965C 501.931,965.465 503.097,966.299 504,967.5C 505.495,972.56 504.328,976.727 500.5,980C 501.91,982.818 503.577,985.485 505.5,988C 503.421,988.808 501.421,988.641 499.5,987.5C 498.365,985.201 497.032,983.034 495.5,981C 493.866,980.506 492.199,980.34 490.5,980.5C 490.5,983.5 490.5,986.5 490.5,989.5C 488.833,989.5 487.167,989.5 485.5,989.5C 485.5,981.167 485.5,972.833 485.5,964.5 Z"/></g>
<g><path style="opacity:1" fill="#e9eaea" d="M 490.5,968.5 C 493.187,968.336 495.854,968.503 498.5,969C 500.135,975.529 497.468,978.029 490.5,976.5C 490.5,973.833 490.5,971.167 490.5,968.5 Z"/></g>
<g><path style="opacity:1" fill="#464d53" d="M 1068.5,963.5 C 1074.32,962.307 1078.99,963.974 1082.5,968.5C 1081.86,969.646 1081.02,970.646 1080,971.5C 1074.47,966.956 1069.8,967.623 1066,973.5C 1065.05,982.217 1068.88,985.717 1077.5,984C 1079.11,982.951 1079.77,981.451 1079.5,979.5C 1077.5,979.5 1075.5,979.5 1073.5,979.5C 1073.5,978.167 1073.5,976.833 1073.5,975.5C 1076.83,975.5 1080.17,975.5 1083.5,975.5C 1085.16,986.511 1080.49,991.011 1069.5,989C 1060.72,984.314 1058.55,977.481 1063,968.5C 1064.81,966.7 1066.65,965.033 1068.5,963.5 Z"/></g>
<g><path style="opacity:1" fill="#464d52" d="M 153.5,963.5 C 161.269,962.635 167.102,965.635 171,972.5C 171.991,980.018 169.158,985.518 162.5,989C 149.892,990.056 144.392,984.223 146,971.5C 148.028,968.308 150.528,965.641 153.5,963.5 Z"/></g>
<g><path style="opacity:1" fill="#efeff0" d="M 154.5,968.5 C 163.181,967.35 167.015,971.017 166,979.5C 163.459,984.069 159.625,985.569 154.5,984C 149.197,978.76 149.197,973.594 154.5,968.5 Z"/></g>
<g><path style="opacity:1" fill="#40474d" d="M 373.5,988.5 C 373.827,983.456 373.494,978.456 372.5,973.5C 371.893,973.624 371.56,973.957 371.5,974.5C 370.057,978.407 367.89,981.741 365,984.5C 362.585,981.338 360.418,978.005 358.5,974.5C 358.44,973.957 358.107,973.624 357.5,973.5C 356.506,978.456 356.173,983.456 356.5,988.5C 355.167,988.5 353.833,988.5 352.5,988.5C 352.5,980.5 352.5,972.5 352.5,964.5C 354.792,964.244 356.959,964.577 359,965.5C 361,969.5 363,973.5 365,977.5C 367.421,973.66 369.588,969.66 371.5,965.5C 373.396,964.534 375.396,964.201 377.5,964.5C 377.5,972.5 377.5,980.5 377.5,988.5C 376.167,988.5 374.833,988.5 373.5,988.5 Z"/></g>
<g><path style="opacity:1" fill="#3f464c" d="M 800.5,964.5 C 808.981,968.437 809.648,973.604 802.5,980C 804.291,982.414 805.957,984.914 807.5,987.5C 805.926,988.631 804.259,988.798 802.5,988C 800.833,985.667 799.167,983.333 797.5,981C 795.866,980.506 794.199,980.34 792.5,980.5C 792.5,983.167 792.5,985.833 792.5,988.5C 791.167,988.5 789.833,988.5 788.5,988.5C 788.5,980.5 788.5,972.5 788.5,964.5C 792.5,964.5 796.5,964.5 800.5,964.5 Z"/></g>
<g><path style="opacity:1" fill="#94989c" d="M 800.5,969.5 C 798.167,969.5 795.833,969.5 793.5,969.5C 793.5,971.5 793.5,973.5 793.5,975.5C 795.833,975.5 798.167,975.5 800.5,975.5C 798.052,976.473 795.385,976.806 792.5,976.5C 792.5,973.833 792.5,971.167 792.5,968.5C 795.385,968.194 798.052,968.527 800.5,969.5 Z"/></g>
<g><path style="opacity:1" fill="#edeeef" d="M 800.5,969.5 C 803.167,971.5 803.167,973.5 800.5,975.5C 798.167,975.5 795.833,975.5 793.5,975.5C 793.5,973.5 793.5,971.5 793.5,969.5C 795.833,969.5 798.167,969.5 800.5,969.5 Z"/></g>
<g><path style="opacity:1" fill="#a1a2a8" d="M 1035.5,974.5 C 1034.83,979.167 1034.17,983.833 1033.5,988.5C 1033.17,983.456 1033.51,978.456 1034.5,973.5C 1035.11,973.624 1035.44,973.957 1035.5,974.5 Z"/></g>
<g><path style="opacity:1" fill="#42484e" d="M 640.5,978.5 C 640.56,979.043 640.893,979.376 641.5,979.5C 642.494,974.544 642.827,969.544 642.5,964.5C 644.167,964.5 645.833,964.5 647.5,964.5C 647.5,972.5 647.5,980.5 647.5,988.5C 645.396,988.799 643.396,988.466 641.5,987.5C 638.243,982.654 634.743,977.988 631,973.5C 630.501,978.489 630.334,983.489 630.5,988.5C 628.833,988.5 627.167,988.5 625.5,988.5C 625.5,980.5 625.5,972.5 625.5,964.5C 627.199,964.34 628.866,964.506 630.5,965C 633.964,969.441 637.298,973.941 640.5,978.5 Z"/></g>
<g><path style="opacity:1" fill="#b4b8b8" d="M 642.5,964.5 C 642.827,969.544 642.494,974.544 641.5,979.5C 640.893,979.376 640.56,979.043 640.5,978.5C 641.167,973.833 641.833,969.167 642.5,964.5 Z"/></g>
<g><path style="opacity:1" fill="#424a50" d="M 722.5,986.5 C 721.393,988.847 719.726,989.18 717.5,987.5C 717.67,986.178 717.337,985.011 716.5,984C 712.789,983.175 709.122,983.341 705.5,984.5C 704.833,987.833 702.833,989.167 699.5,988.5C 701.292,980.958 703.792,973.625 707,966.5C 709.179,964.363 711.679,964.029 714.5,965.5C 717.492,972.465 720.158,979.465 722.5,986.5 Z"/></g>
<g><path style="opacity:1" fill="#d6d7d8" d="M 710.5,970.5 C 712.277,973.23 713.611,976.23 714.5,979.5C 712.076,979.808 709.743,979.474 707.5,978.5C 708.508,975.805 709.508,973.138 710.5,970.5 Z"/></g>
<g><path style="opacity:1" fill="#93989c" d="M 849.5,974.5 C 850.451,975.919 850.784,977.585 850.5,979.5C 846.833,979.5 843.167,979.5 839.5,979.5C 842.625,978.521 845.958,978.187 849.5,978.5C 849.5,977.167 849.5,975.833 849.5,974.5 Z"/></g>
<g><path style="opacity:1" fill="#ebecec" d="M 187.5,978.5 C 190.518,978.335 193.518,978.502 196.5,979C 197.833,980.667 197.833,982.333 196.5,984C 193.518,984.498 190.518,984.665 187.5,984.5C 187.5,982.5 187.5,980.5 187.5,978.5 Z"/></g>
<g><path style="opacity:1" fill="#474e54" d="M 524.5,963.5 C 526.288,963.215 527.955,963.548 529.5,964.5C 533.302,972.243 536.302,980.243 538.5,988.5C 536.833,988.5 535.167,988.5 533.5,988.5C 533.32,984.588 531.153,982.921 527,983.5C 523.218,982.701 520.718,984.034 519.5,987.5C 517.833,988.833 516.167,988.833 514.5,987.5C 517.291,979.255 520.624,971.255 524.5,963.5 Z"/></g>
<g><path style="opacity:1" fill="#dfe0e1" d="M 526.5,970.5 C 528.006,972.975 529.339,975.642 530.5,978.5C 528.257,979.474 525.924,979.808 523.5,979.5C 524.216,976.402 525.216,973.402 526.5,970.5 Z"/></g>
<g><path style="opacity:1" fill="#3b434a" d="M 574.5,964.5 C 575.833,964.5 577.167,964.5 578.5,964.5C 578.5,972.5 578.5,980.5 578.5,988.5C 577.167,988.5 575.833,988.5 574.5,988.5C 574.5,980.5 574.5,972.5 574.5,964.5 Z"/></g>
<g><path style="opacity:1" fill="#40484e" d="M 741.5,978.5 C 740.521,981.625 740.187,984.958 740.5,988.5C 739.167,988.5 737.833,988.5 736.5,988.5C 736.665,985.15 736.498,981.817 736,978.5C 733.542,973.747 730.708,969.247 727.5,965C 729.5,964.333 731.5,964.333 733.5,965C 734.96,968.089 736.793,970.922 739,973.5C 741.207,970.922 743.04,968.089 744.5,965C 746.259,964.202 747.926,964.369 749.5,965.5C 747.073,970.029 744.406,974.362 741.5,978.5 Z"/></g>
<g><path style="opacity:1" fill="#454b51" d="M 1004.5,964.5 C 1006.79,964.244 1008.96,964.577 1011,965.5C 1014.14,973.087 1016.97,980.753 1019.5,988.5C 1015.88,988.956 1013.55,987.456 1012.5,984C 1009.17,983.333 1005.83,983.333 1002.5,984C 1001.39,987.805 999.06,988.972 995.5,987.5C 998.703,979.888 1001.7,972.222 1004.5,964.5 Z"/></g>
<g><path style="opacity:1" fill="#e1e1e2" d="M 1006.5,970.5 C 1009.34,972.64 1010.67,975.64 1010.5,979.5C 1008.5,979.5 1006.5,979.5 1004.5,979.5C 1004.87,976.426 1005.54,973.426 1006.5,970.5 Z"/></g>
<g><path style="opacity:1" fill="#73767c" d="M 556.5,968.5 C 556.5,975.5 556.5,982.5 556.5,989.5C 554.585,989.784 552.919,989.451 551.5,988.5C 552.833,988.5 554.167,988.5 555.5,988.5C 555.176,981.646 555.509,974.979 556.5,968.5 Z"/></g>
<g><path style="opacity:1" fill="#3c4349" d="M 544.5,964.5 C 550.833,964.5 557.167,964.5 563.5,964.5C 563.5,965.833 563.5,967.167 563.5,968.5C 561.167,968.5 558.833,968.5 556.5,968.5C 555.509,974.979 555.176,981.646 555.5,988.5C 554.167,988.5 552.833,988.5 551.5,988.5C 551.5,981.833 551.5,975.167 551.5,968.5C 549.167,968.5 546.833,968.5 544.5,968.5C 544.5,967.167 544.5,965.833 544.5,964.5 Z"/></g>
<g><path style="opacity:1" fill="#a9acae" d="M 371.5,974.5 C 371.56,973.957 371.893,973.624 372.5,973.5C 373.494,978.456 373.827,983.456 373.5,988.5C 372.833,983.833 372.167,979.167 371.5,974.5 Z"/></g>
<g><path style="opacity:1" fill="#929499" d="M 900.5,980.5 C 900.5,983.5 900.5,986.5 900.5,989.5C 898.585,989.784 896.919,989.451 895.5,988.5C 896.833,988.5 898.167,988.5 899.5,988.5C 899.194,985.615 899.527,982.948 900.5,980.5 Z"/></g>
<g><path style="opacity:1" fill="#444c52" d="M 981.5,963.5 C 983.167,963.5 984.833,963.5 986.5,963.5C 986.666,970.508 986.5,977.508 986,984.5C 983.459,989.069 979.625,990.569 974.5,989C 970.588,986.72 970.588,984.553 974.5,982.5C 976.439,984.618 978.606,984.951 981,983.5C 981.5,976.842 981.666,970.175 981.5,963.5 Z"/></g>
<g><path style="opacity:1" fill="#444c51" d="M 223.5,964.5 C 225.167,964.5 226.833,964.5 228.5,964.5C 228.666,971.175 228.5,977.842 228,984.5C 224.634,989.609 220.134,990.776 214.5,988C 211.844,985.771 212.177,983.938 215.5,982.5C 217.789,984.592 220.289,984.926 223,983.5C 223.5,977.175 223.666,970.842 223.5,964.5 Z"/></g>
<g><path style="opacity:1" fill="#8f9395" d="M 839.5,979.5 C 839.5,982.833 839.5,986.167 839.5,989.5C 837.585,989.784 835.919,989.451 834.5,988.5C 835.833,988.5 837.167,988.5 838.5,988.5C 838.19,985.287 838.523,982.287 839.5,979.5 Z"/></g>
<g><path style="opacity:1" fill="#797f82" d="M 741.5,978.5 C 741.5,982.167 741.5,985.833 741.5,989.5C 739.585,989.784 737.919,989.451 736.5,988.5C 737.833,988.5 739.167,988.5 740.5,988.5C 740.187,984.958 740.521,981.625 741.5,978.5 Z"/></g>
<g><path style="opacity:1" fill="#9ea1a4" d="M 690.5,984.5 C 691.451,985.919 691.784,987.585 691.5,989.5C 685.642,989.822 679.975,989.489 674.5,988.5C 679.833,988.5 685.167,988.5 690.5,988.5C 690.5,987.167 690.5,985.833 690.5,984.5 Z"/></g>
<g><path style="opacity:1" fill="#a9abae" d="M 722.5,986.5 C 723.404,987.209 723.737,988.209 723.5,989.5C 720.918,989.975 718.918,989.308 717.5,987.5C 719.726,989.18 721.393,988.847 722.5,986.5 Z"/></g>
</svg>
